<svg xmlns="http://www.w3.org/2000/svg" viewBox="10 12 313 313">
<g transform="translate(0,337) scale(0.1,-0.1)" stroke="none">
<ellipse cx="1665" cy="1679" rx="1301" ry="1562" fill="white"/>
<path fill="#213558" d="M1599 3240 c-436 -50 -847 -292 -1101 -647 -339 -473 -391 -1109
-134 -1620 225 -449 616 -747 1119 -855 146 -31 446 -31 594 0 354 76 662 252
885 507 526 603 528 1479 4 2087 -170 199 -450 382 -703 462 -199 62 -467 89
-664 66z m-115 -1020 c38 -6 108 -24 154 -40 80 -28 87 -29 104 -13 10 9 18
25 18 35 0 17 25 36 35 26 3 -2 9 -60 15 -129 5 -68 12 -143 15 -166 4 -37 2
-43 -14 -43 -12 0 -22 13 -32 42 -7 23 -37 67 -65 98 -124 133 -323 168 -488
86 -155 -76 -236 -228 -236 -439 0 -205 98 -370 267 -450 63 -30 76 -32 173
-32 97 0 110 2 165 30 l60 30 3 182 c2 177 2 182 -21 208 -17 20 -35 28 -70
32 -37 5 -47 9 -47 24 0 18 12 19 225 19 213 0 225 -1 225 -19 0 -14 -10 -20
-42 -24 -29 -4 -50 -14 -65 -32 -22 -25 -23 -33 -23 -216 l0 -189 -32 -20
c-18 -11 -71 -33 -117 -50 -203 -74 -469 -55 -636 45 -125 75 -216 192 -250
320 -68 261 104 554 383 655 98 35 192 45 296 30z m1044 -27 c82 -29 117 -25
134 12 6 14 17 25 25 25 10 0 13 -36 13 -180 0 -151 -2 -180 -15 -180 -9 0
-17 14 -21 38 -32 183 -217 301 -362 231 -55 -27 -82 -70 -82 -129 0 -84 13
-95 281 -263 174 -109 233 -173 259 -278 32 -128 -58 -272 -202 -325 -68 -25
-187 -21 -287 10 -107 33 -116 33 -143 -4 -43 -59 -48 -45 -48 151 0 161 2
180 16 177 10 -2 23 -25 33 -58 22 -71 35 -93 79 -142 58 -64 103 -83 203 -83
75 0 90 3 122 25 110 76 97 212 -31 304 -26 19 -103 70 -172 113 -188 117
-229 159 -251 262 -30 141 69 284 218 317 73 16 139 10 231 -23z"/>
</g>
</svg>
