<?xml version="1.0" standalone="no"?>
<!DOCTYPE svg PUBLIC "-//W3C//DTD SVG 20010904//EN"
 "http://www.w3.org/TR/2001/REC-SVG-20010904/DTD/svg10.dtd">
<svg version="1.0" xmlns="http://www.w3.org/2000/svg"
 color="#ffffff" fill="currentColor" width="730" height="105" viewBox="0 0 1480.000000 337.000000"
 preserveAspectRatio="xMidYMid meet">

<g transform="translate(0.000000,337.000000) scale(0.100000,-0.100000)"
stroke="none">
<ellipse cx="1663" cy="1679" rx="1200" ry="1500" fill="white"/>
<path fill="#213558" d="M1599 3240 c-436 -50 -847 -292 -1101 -647 -339 -473 -391 -1109
-134 -1620 225 -449 616 -747 1119 -855 146 -31 446 -31 594 0 354 76 662 252
885 507 526 603 528 1479 4 2087 -170 199 -450 382 -703 462 -199 62 -467 89
-664 66z m-115 -1020 c38 -6 108 -24 154 -40 80 -28 87 -29 104 -13 10 9 18
25 18 35 0 17 25 36 35 26 3 -2 9 -60 15 -129 5 -68 12 -143 15 -166 4 -37 2
-43 -14 -43 -12 0 -22 13 -32 42 -7 23 -37 67 -65 98 -124 133 -323 168 -488
86 -155 -76 -236 -228 -236 -439 0 -205 98 -370 267 -450 63 -30 76 -32 173
-32 97 0 110 2 165 30 l60 30 3 182 c2 177 2 182 -21 208 -17 20 -35 28 -70
32 -37 5 -47 9 -47 24 0 18 12 19 225 19 213 0 225 -1 225 -19 0 -14 -10 -20
-42 -24 -29 -4 -50 -14 -65 -32 -22 -25 -23 -33 -23 -216 l0 -189 -32 -20
c-18 -11 -71 -33 -117 -50 -203 -74 -469 -55 -636 45 -125 75 -216 192 -250
320 -68 261 104 554 383 655 98 35 192 45 296 30z m1044 -27 c82 -29 117 -25
134 12 6 14 17 25 25 25 10 0 13 -36 13 -180 0 -151 -2 -180 -15 -180 -9 0
-17 14 -21 38 -32 183 -217 301 -362 231 -55 -27 -82 -70 -82 -129 0 -84 13
-95 281 -263 174 -109 233 -173 259 -278 32 -128 -58 -272 -202 -325 -68 -25
-187 -21 -287 10 -107 33 -116 33 -143 -4 -43 -59 -48 -45 -48 151 0 161 2
180 16 177 10 -2 23 -25 33 -58 22 -71 35 -93 79 -142 58 -64 103 -83 203 -83
75 0 90 3 122 25 110 76 97 212 -31 304 -26 19 -103 70 -172 113 -188 117
-229 159 -251 262 -30 141 69 284 218 317 73 16 139 10 231 -23z"/>
<path d="M5931 2548 c-29 -73 -322 -733 -342 -769 -15 -27 -37 -50 -56 -59
-18 -8 -33 -18 -33 -22 0 -5 54 -8 120 -8 73 0 120 4 120 10 0 6 -10 10 -23
10 -32 0 -67 27 -67 53 0 12 19 66 42 120 l41 97 172 0 171 0 43 -102 c40 -94
43 -104 30 -128 -8 -14 -29 -29 -47 -35 -17 -5 -32 -13 -32 -17 0 -4 77 -8
170 -8 107 0 170 4 170 10 0 6 -12 10 -26 10 -16 0 -36 11 -52 29 -16 17 -98
193 -201 430 -95 220 -178 401 -182 401 -5 0 -13 -10 -18 -22z m-12 -210 c5
-13 39 -89 74 -170 l66 -148 -154 0 -154 0 66 148 c35 81 69 157 74 170 5 12
11 22 14 22 3 0 9 -10 14 -22z"/>
<path d="M7873 2513 c-14 -32 -88 -202 -165 -378 -161 -369 -176 -398 -218
-415 -16 -7 -30 -16 -30 -21 0 -5 54 -9 120 -9 73 0 120 4 120 10 0 6 -10 10
-23 10 -34 0 -67 28 -67 57 0 14 18 68 41 119 l41 94 170 0 169 0 36 -77 c19
-43 38 -97 40 -119 5 -35 2 -44 -18 -58 -13 -9 -31 -16 -41 -16 -10 0 -18 -4
-18 -10 0 -6 63 -10 170 -10 107 0 170 4 170 10 0 6 -12 10 -26 10 -51 0 -75
44 -254 457 -96 222 -179 403 -183 403 -4 0 -20 -26 -34 -57z m72 -332 c37
-84 65 -155 62 -157 -2 -3 -70 -3 -150 -2 l-146 3 53 120 c100 228 97 221 106
205 5 -8 38 -84 75 -169z"/>
<path d="M9833 2513 c-14 -32 -88 -202 -165 -378 -161 -369 -176 -398 -218
-415 -16 -7 -30 -16 -30 -21 0 -5 54 -9 120 -9 73 0 120 4 120 10 0 6 -10 10
-23 10 -34 0 -67 28 -67 57 0 14 18 68 41 119 l41 94 170 0 169 0 36 -77 c19
-43 38 -97 40 -119 5 -35 2 -44 -18 -58 -13 -9 -31 -16 -41 -16 -10 0 -18 -4
-18 -10 0 -6 63 -10 170 -10 107 0 170 4 170 10 0 6 -12 10 -26 10 -51 0 -75
44 -254 457 -96 222 -179 403 -183 403 -4 0 -20 -26 -34 -57z m72 -332 c37
-84 65 -155 62 -157 -2 -3 -70 -3 -150 -2 l-146 3 53 120 c100 228 97 221 106
205 5 -8 38 -84 75 -169z"/>
<path d="M3965 2540 c-191 -42 -323 -166 -370 -347 -48 -182 35 -359 212 -456
76 -41 156 -58 273 -58 121 -1 176 10 266 51 l64 29 0 145 c0 85 5 155 11 169
12 26 47 47 79 47 11 0 20 5 20 10 0 6 -65 10 -175 10 -166 0 -222 -10 -136
-24 65 -10 71 -28 71 -196 l0 -146 -47 -25 c-41 -21 -62 -24 -148 -24 -92 0
-104 2 -153 30 -71 39 -145 121 -174 193 -19 48 -23 76 -23 172 0 108 2 119
31 180 42 90 84 134 162 172 59 29 76 33 147 33 65 -1 91 -6 136 -27 74 -34
133 -88 156 -143 10 -25 22 -45 27 -45 8 0 1 160 -11 228 -5 31 -23 46 -23 19
0 -7 -6 -21 -13 -32 -13 -17 -17 -17 -93 9 -87 30 -220 42 -289 26z"/>
<path d="M4580 2521 c0 -6 13 -11 29 -11 17 0 42 -10 58 -24 l28 -24 0 -350
c0 -331 -1 -351 -19 -371 -11 -12 -37 -24 -58 -27 -86 -14 -27 -24 142 -24 99
0 180 4 180 8 0 5 -19 12 -42 18 -67 14 -78 45 -78 227 l0 147 44 0 44 0 159
-199 158 -200 108 0 c103 -1 139 10 78 24 -17 3 -47 19 -69 35 -46 33 -295
338 -286 351 3 5 12 9 20 9 23 0 107 46 131 72 29 31 53 90 53 131 0 83 -47
150 -134 189 -48 22 -65 23 -298 26 -171 2 -248 0 -248 -7z m444 -54 c118 -66
112 -254 -9 -311 -39 -19 -161 -40 -182 -32 -10 4 -13 46 -13 176 0 197 -5
188 105 189 44 1 70 -5 99 -22z"/>
<path d="M6450 2520 c0 -5 11 -10 25 -10 40 0 89 -24 118 -59 l27 -33 0 -323
c0 -322 0 -324 -23 -350 -15 -18 -36 -28 -65 -32 -88 -12 -36 -23 108 -23 143
0 193 11 112 24 -77 12 -77 10 -79 350 l-3 301 38 -43 c333 -378 569 -641 575
-641 4 -1 7 176 7 392 0 453 -3 437 81 437 27 0 49 5 49 10 0 6 -57 10 -150
10 -93 0 -150 -4 -150 -10 0 -5 17 -10 38 -10 21 0 47 -6 58 -14 18 -14 19
-30 21 -303 l3 -288 -38 43 c-20 23 -143 163 -272 311 l-235 270 -122 0 c-76
1 -123 -3 -123 -9z"/>
<path d="M8430 2520 c0 -5 16 -10 35 -10 25 0 44 -8 60 -25 l25 -24 0 -351 c0
-336 -1 -351 -20 -370 -11 -11 -38 -23 -60 -26 -22 -4 -40 -11 -40 -16 0 -6
99 -8 268 -6 286 5 317 10 426 65 69 35 148 113 182 180 27 54 29 66 29 173 0
109 -2 119 -32 182 -53 113 -148 189 -280 223 -68 18 -593 22 -593 5z m508
-48 c141 -45 228 -147 253 -300 14 -82 0 -180 -32 -245 -34 -66 -103 -132
-172 -163 -54 -25 -74 -28 -157 -29 -52 0 -107 3 -122 8 l-28 7 0 360 0 360
28 6 c15 3 32 7 37 9 31 10 141 3 193 -13z"/>
<path d="M11883 2488 c-40 -17 -73 -34 -73 -38 0 -4 14 -7 30 -7 17 0 36 -5
43 -12 9 -9 12 -98 12 -350 0 -319 -1 -340 -19 -360 -11 -12 -30 -21 -43 -21
-12 0 -23 -4 -23 -10 0 -6 52 -10 135 -10 83 0 135 4 135 10 0 6 -11 10 -24
10 -28 0 -54 22 -61 53 -3 12 -4 96 -3 186 l3 164 37 30 c27 21 51 31 87 35
46 4 53 2 81 -26 l30 -30 0 -180 c0 -166 -2 -181 -21 -206 -12 -15 -30 -26
-45 -26 -13 0 -24 -4 -24 -10 0 -6 52 -10 135 -10 83 0 135 4 135 10 0 6 -11
10 -23 10 -13 0 -32 9 -43 21 -17 19 -20 43 -24 218 -5 162 -9 202 -23 229
-22 40 -71 72 -113 72 -40 0 -128 -44 -158 -81 -14 -16 -27 -29 -30 -29 -3 0
-6 88 -6 195 0 226 8 213 -107 163z"/>
<path d="M13843 2488 c-77 -32 -90 -45 -47 -45 59 0 59 -2 59 -367 0 -314 -1
-335 -19 -355 -11 -12 -30 -21 -43 -21 -12 0 -23 -4 -23 -10 0 -6 50 -10 130
-10 123 0 166 10 100 24 -20 4 -34 14 -40 31 -6 16 -10 181 -10 406 0 435 12
398 -107 347z"/>
<path d="M10845 2499 c-63 -15 -112 -55 -141 -116 -22 -45 -26 -62 -21 -106
10 -82 44 -120 191 -214 147 -94 202 -142 216 -192 13 -47 4 -80 -33 -118 -54
-57 -167 -63 -242 -11 -38 26 -78 81 -96 133 -24 73 -29 60 -29 -73 0 -81 4
-132 10 -132 6 0 10 4 10 10 0 5 9 14 20 20 16 8 38 6 93 -10 142 -39 244 -23
318 51 58 57 78 126 59 199 -15 58 -94 136 -205 204 -155 96 -183 116 -199
150 -23 48 -20 80 11 117 53 63 119 74 201 33 60 -30 105 -87 124 -158 7 -25
16 -46 20 -46 4 0 8 61 8 135 0 74 -2 135 -5 135 -3 0 -16 -12 -29 -26 l-22
-27 -65 21 c-80 27 -143 34 -194 21z"/>
<path d="M11495 2231 c-118 -29 -197 -138 -198 -275 -1 -127 49 -223 136 -265
46 -22 127 -28 170 -12 59 23 135 115 151 184 9 40 -6 33 -27 -13 -27 -58 -69
-84 -142 -88 -76 -4 -119 18 -158 80 -81 130 -45 321 69 358 72 24 122 -3 139
-75 9 -42 23 -55 56 -55 38 0 62 26 54 59 -19 78 -142 128 -250 102z"/>
<path d="M12689 2225 c-60 -19 -133 -85 -167 -149 -23 -44 -27 -63 -27 -136 0
-99 19 -144 84 -203 52 -47 101 -67 164 -67 76 0 125 19 182 72 59 54 94 123
102 202 19 185 -163 337 -338 281z m129 -45 c120 -74 152 -327 53 -430 -43
-45 -79 -57 -131 -41 -78 23 -137 119 -147 239 -8 97 10 164 57 213 33 35 42
39 86 39 31 0 61 -7 82 -20z"/>
<path d="M13351 2228 c-86 -24 -169 -110 -196 -201 -19 -65 -19 -113 2 -176
35 -109 134 -181 248 -181 76 0 131 25 189 85 150 153 95 413 -98 470 -56 17
-95 18 -145 3z m120 -51 c75 -50 114 -153 107 -277 -15 -259 -259 -267 -324
-10 -30 118 1 249 68 290 45 27 106 26 149 -3z"/>
<path d="M14203 2221 c-54 -25 -83 -71 -83 -131 0 -69 26 -100 133 -164 53
-30 105 -68 116 -82 50 -63 8 -144 -73 -144 -70 0 -137 58 -153 133 -11 55
-23 25 -23 -62 l0 -89 38 0 c20 0 67 -3 103 -7 82 -9 124 3 170 51 31 33 34
40 34 99 0 59 -3 67 -34 99 -18 19 -71 55 -117 81 -46 26 -95 58 -109 72 -57
58 -13 133 79 133 45 0 100 -46 117 -98 21 -67 29 -59 29 29 l0 85 -37 1 c-21
0 -63 3 -93 7 -44 5 -63 3 -97 -13z"/>
<path d="M7705 1389 c-47 -19 -92 -50 -53 -36 9 3 24 0 35 -8 16 -12 18 -32
21 -207 2 -106 1 -217 -3 -246 -6 -48 -10 -55 -38 -67 -30 -13 -25 -14 73 -15
l105 0 -35 18 -35 17 0 135 0 134 34 23 c42 28 85 29 111 3 18 -18 20 -33 20
-155 l0 -135 -32 -20 -33 -20 100 0 c93 1 98 2 69 14 -40 18 -44 34 -44 184 0
99 -3 130 -17 153 -35 59 -119 55 -185 -8 l-28 -27 0 142 c0 78 -3 142 -7 141
-5 0 -30 -9 -58 -20z"/>
<path d="M8167 1403 c-12 -12 -7 -50 8 -63 32 -27 82 23 55 55 -13 15 -51 20
-63 8z"/>
<path d="M8850 1385 c-31 -14 -46 -24 -34 -25 42 -1 44 -13 44 -264 0 -133 -4
-246 -8 -253 -4 -7 -19 -16 -32 -22 -19 -7 0 -10 75 -9 83 0 95 2 72 11 -34
14 -39 31 -35 127 l3 74 68 -89 c64 -83 67 -89 51 -107 -17 -17 -14 -18 77
-17 81 1 90 2 67 12 -14 7 -36 21 -48 32 -31 28 -150 181 -150 193 0 20 121
121 162 135 l43 15 -84 1 c-82 1 -84 1 -67 -18 17 -18 15 -22 -51 -84 l-68
-66 -3 190 c-2 142 -5 189 -15 188 -6 0 -37 -11 -67 -24z"/>
<path d="M9320 1395 c-10 -12 -10 -21 -2 -40 19 -42 72 -26 72 21 0 34 -47 46
-70 19z"/>
<path d="M6703 1374 c-52 -23 -72 -42 -34 -29 32 10 51 -30 51 -108 0 -62 -2
-68 -17 -61 -10 5 -48 9 -85 9 -59 0 -70 -3 -104 -31 -56 -45 -84 -104 -84
-176 0 -155 139 -247 251 -167 34 24 39 24 39 -2 0 -25 19 -22 91 11 24 11 35
18 24 15 -49 -11 -50 -5 -53 290 -2 207 -6 275 -15 274 -7 0 -36 -11 -64 -25z
m-36 -216 c41 -20 54 -67 51 -190 l-3 -112 -34 -20 c-31 -18 -37 -18 -74 -5
-59 21 -99 75 -105 143 -6 75 4 120 35 157 41 49 72 55 130 27z"/>
<path d="M3695 1370 c3 -5 15 -10 25 -10 10 0 26 -10 34 -22 13 -19 16 -61 16
-253 0 -255 -1 -259 -61 -281 -30 -11 -17 -12 101 -12 120 0 131 1 100 12 -52
19 -60 44 -58 171 l3 110 85 3 c100 3 130 -9 147 -58 11 -31 12 -24 12 70 -1
79 -3 97 -10 74 -15 -52 -32 -59 -138 -59 l-96 0 -3 118 -3 117 121 0 c138 0
173 -11 195 -63 14 -32 14 -32 15 31 l0 62 -246 0 c-161 0 -243 -3 -239 -10z"/>
<path d="M7087 1323 c-2 -32 -3 -60 -1 -62 1 -2 9 13 18 32 19 47 41 57 125
57 l71 0 0 -238 c0 -262 -1 -266 -61 -288 -30 -11 -17 -12 101 -12 118 0 131
1 101 12 -60 22 -61 26 -61 288 l0 238 74 0 c64 0 76 -3 100 -25 14 -13 26
-33 26 -45 0 -11 5 -20 11 -20 7 0 9 9 5 23 -3 12 -6 39 -6 60 l0 37 -249 0
-249 0 -5 -57z"/>
<path d="M8165 1185 c-33 -13 -54 -24 -47 -24 6 -1 21 -10 32 -21 18 -18 20
-33 20 -137 0 -144 -5 -162 -44 -179 -29 -12 -24 -13 69 -13 94 0 98 1 73 15
-16 8 -29 16 -30 17 -1 1 -4 84 -7 183 l-6 182 -60 -23z"/>
<path d="M8393 1186 c-49 -21 -89 -47 -49 -32 40 14 46 -8 46 -160 l0 -144
-32 -20 -33 -20 100 0 100 0 -32 20 -33 20 0 129 0 130 33 25 c45 34 89 34
116 0 19 -24 21 -40 21 -145 0 -64 -3 -125 -6 -134 -4 -10 -21 -23 -38 -31
-29 -12 -24 -13 67 -14 63 0 96 4 92 10 -3 6 -12 10 -20 10 -25 0 -30 24 -35
171 -4 129 -7 150 -25 169 -45 50 -101 47 -165 -7 l-40 -35 0 41 c0 23 -3 41
-7 40 -5 0 -31 -11 -60 -23z"/>
<path d="M9325 1188 c-27 -11 -54 -24 -60 -30 -7 -8 -6 -9 2 -4 7 4 22 2 33
-4 19 -10 20 -20 20 -155 l0 -145 -32 -20 -33 -20 95 0 95 1 -27 20 -28 21 0
173 c0 96 -3 176 -7 178 -5 2 -30 -5 -58 -15z"/>
<path d="M9555 1187 c-27 -10 -54 -23 -60 -29 -7 -8 -6 -9 2 -4 7 4 22 2 33
-4 19 -10 20 -20 20 -155 l0 -145 -32 -20 -33 -20 100 0 100 0 -31 19 c-37 23
-44 49 -44 176 l0 93 35 31 c43 38 92 42 121 10 16 -17 20 -40 22 -126 5 -143
-1 -171 -41 -188 -30 -13 -26 -14 68 -14 94 0 98 1 73 15 -34 18 -37 30 -40
186 -3 110 -6 130 -24 154 -39 53 -100 52 -163 -2 -21 -19 -42 -34 -45 -34 -2
0 -6 17 -8 38 l-3 38 -50 -19z"/>
<path d="M10105 1201 c-62 -15 -85 -40 -108 -113 -9 -26 11 -82 38 -108 l24
-23 -29 -34 c-32 -36 -39 -80 -15 -89 22 -9 19 -17 -20 -65 -47 -55 -43 -77
17 -107 94 -47 219 -24 286 52 26 30 32 45 30 73 -5 58 -41 77 -146 81 -112 4
-132 8 -132 31 0 31 32 51 72 45 50 -9 122 25 143 66 17 32 17 86 1 123 -7 14
-3 17 28 17 25 0 36 4 36 15 0 11 -12 15 -47 15 -27 0 -66 7 -88 15 -45 16
-47 16 -90 6z m65 -31 c28 -28 40 -63 40 -118 0 -59 -21 -92 -59 -92 -74 0
-123 149 -66 205 29 30 58 32 85 5z m118 -371 c53 -20 2 -101 -74 -115 -50 -9
-141 2 -170 21 -28 18 -32 54 -9 88 14 21 19 22 122 19 59 -3 118 -8 131 -13z"/>
<path d="M4385 1176 c-70 -31 -125 -117 -125 -196 0 -119 102 -212 215 -196
147 23 224 218 133 336 -49 64 -149 89 -223 56z m112 -26 c62 -38 98 -157 74
-246 -26 -95 -117 -126 -180 -62 -75 77 -81 243 -10 302 36 31 73 33 116 6z"/>
<path d="M4765 1165 c-32 -15 -43 -24 -29 -24 39 -2 44 -19 44 -161 0 -141 -4
-156 -45 -178 -15 -9 4 -11 85 -11 87 0 100 2 75 11 -16 6 -33 16 -37 22 -4 6
-8 70 -8 142 0 124 1 132 23 152 28 26 40 27 71 7 40 -26 77 5 56 46 -18 33
-76 25 -116 -15 l-34 -34 0 34 c0 41 -14 43 -85 9z"/>
<path d="M5743 1170 c-52 -31 -69 -81 -35 -99 26 -14 42 0 47 39 6 45 27 64
69 64 52 0 76 -27 76 -86 0 -28 -5 -48 -11 -48 -29 0 -179 -80 -194 -104 -21
-32 -22 -89 -1 -121 32 -48 132 -39 183 17 17 19 17 18 33 -14 21 -46 57 -49
104 -7 38 33 43 50 8 28 -11 -7 -26 -9 -35 -6 -13 5 -16 31 -19 157 l-3 152
-28 24 c-24 20 -39 24 -95 24 -49 0 -76 -5 -99 -20z m157 -226 l0 -85 -44 -20
c-50 -22 -87 -15 -105 20 -27 50 2 97 87 141 32 16 58 29 60 30 1 0 2 -39 2
-86z"/>
<path d="M6140 1167 c-49 -20 -52 -22 -27 -25 39 -5 47 -33 47 -161 0 -126
-10 -163 -48 -178 -22 -9 -6 -11 83 -11 80 0 102 2 80 9 -49 14 -55 31 -55
165 0 108 2 124 21 148 24 30 54 33 81 9 33 -30 76 18 48 52 -24 28 -75 18
-114 -22 l-36 -37 0 37 c0 43 -4 44 -80 14z"/>
<path d="M5046 1170 c22 -9 34 -35 118 -263 23 -65 47 -119 51 -120 5 -1 33
53 63 120 30 68 57 121 61 119 3 -2 26 -59 51 -125 25 -66 48 -121 51 -121 3
0 37 81 75 181 38 99 77 189 87 200 17 19 17 19 -40 18 -32 -1 -48 -4 -36 -6
12 -2 24 -11 27 -19 7 -17 -86 -267 -95 -256 -15 18 -91 242 -86 256 3 8 16
16 29 19 13 2 -20 4 -72 4 -52 1 -86 -2 -75 -4 30 -8 41 -19 55 -63 13 -38 11
-44 -25 -130 -22 -49 -42 -90 -45 -90 -8 0 -90 230 -90 252 0 9 8 22 18 27 12
8 -4 10 -63 10 -55 0 -73 -3 -59 -9z"/>
</g>
</svg>
