<svg color="#213558" xmlns="http://www.w3.org/2000/svg" xmlns:xlink="http://www.w3.org/1999/xlink" width="730" zoomAndPan="magnify" viewBox="0 0 730 105" height="105" preserveAspectRatio="xMidYMid meet" version="1.0"><defs><g/><clipPath id="c5426d234e"><path d="M 350 24 L 669.199219 24 L 669.199219 62 L 350 62 Z M 350 24 " clip-rule="nonzero"/></clipPath><clipPath id="80ed3b1db5"><path d="M 127 0.480469 L 136 0.480469 L 136 27 L 127 27 Z M 127 0.480469 " clip-rule="nonzero"/></clipPath><clipPath id="c07b57523e"><path d="M 195 0.480469 L 204 0.480469 L 204 27 L 195 27 Z M 195 0.480469 " clip-rule="nonzero"/></clipPath><clipPath id="19b0c98bc6"><path d="M 249 0.480469 L 269 0.480469 L 269 27 L 249 27 Z M 249 0.480469 " clip-rule="nonzero"/></clipPath><clipPath id="a91beecf65"><path d="M 309 0.480469 L 319 0.480469 L 319 27 L 309 27 Z M 309 0.480469 " clip-rule="nonzero"/></clipPath><clipPath id="ffaafc40cf"><rect x="0" width="320" y="0" height="38"/></clipPath><clipPath id="89036861de"><path d="M 0.976562 0 L 106 0 L 106 105 L 0.976562 105 Z M 0.976562 0 " clip-rule="nonzero"/></clipPath><clipPath id="8c30e72802"><path d="M 53.480469 0 C 24.484375 0 0.976562 23.503906 0.976562 52.5 C 0.976562 81.496094 24.484375 105 53.480469 105 C 82.476562 105 105.984375 81.496094 105.984375 52.5 C 105.984375 23.503906 82.476562 0 53.480469 0 Z M 53.480469 0 " clip-rule="nonzero"/></clipPath><clipPath id="eb9d013263"><path d="M 0.976562 0 L 106 0 L 106 105 L 0.976562 105 Z M 0.976562 0 " clip-rule="nonzero"/></clipPath><clipPath id="e8b7f1d2b6"><path d="M 53.480469 0 C 24.484375 0 0.976562 23.503906 0.976562 52.5 C 0.976562 81.496094 24.484375 105 53.480469 105 C 82.476562 105 105.984375 81.496094 105.984375 52.5 C 105.984375 23.503906 82.476562 0 53.480469 0 Z M 53.480469 0 " clip-rule="nonzero"/></clipPath><clipPath id="c61824cee1"><rect x="0" width="106" y="0" height="105"/></clipPath><clipPath id="69301cc18a"><rect x="0" width="670" y="0" height="105"/></clipPath></defs><g transform="matrix(1, 0, 0, 1, 58, 0.000000000000010413)"><g clip-path="url(#69301cc18a)"><g fill="currentColor"><g transform="translate(111.395997, 51.75812)"><g><path d="M 17.859375 -28.625 C 19.328125 -28.625 20.609375 -28.484375 21.703125 -28.203125 C 22.804688 -27.929688 23.914062 -27.582031 25.03125 -27.15625 C 25.820312 -26.851562 26.296875 -26.703125 26.453125 -26.703125 C 26.785156 -26.703125 27.070312 -26.863281 27.3125 -27.1875 C 27.5625 -27.519531 27.710938 -28 27.765625 -28.625 L 28.53125 -28.625 L 29.265625 -19.6875 L 28.53125 -19.6875 C 28.15625 -21.238281 27.421875 -22.570312 26.328125 -23.6875 C 25.242188 -24.800781 23.976562 -25.640625 22.53125 -26.203125 C 21.09375 -26.773438 19.628906 -27.0625 18.140625 -27.0625 C 16.097656 -27.0625 14.222656 -26.550781 12.515625 -25.53125 C 10.804688 -24.519531 9.429688 -23.023438 8.390625 -21.046875 C 7.359375 -19.078125 6.84375 -16.722656 6.84375 -13.984375 C 6.84375 -11.453125 7.378906 -9.191406 8.453125 -7.203125 C 9.523438 -5.222656 10.976562 -3.679688 12.8125 -2.578125 C 14.65625 -1.484375 16.648438 -0.9375 18.796875 -0.9375 C 19.929688 -0.9375 20.988281 -1.09375 21.96875 -1.40625 C 22.945312 -1.71875 23.984375 -2.238281 25.078125 -2.96875 L 25.078125 -11.046875 C 25.078125 -12.242188 24.765625 -13.078125 24.140625 -13.546875 C 23.515625 -14.023438 22.519531 -14.28125 21.15625 -14.3125 L 21.15625 -15.046875 L 33.1875 -15.046875 L 33.1875 -14.3125 C 32.175781 -14.226562 31.421875 -14.078125 30.921875 -13.859375 C 30.421875 -13.640625 30.050781 -13.257812 29.8125 -12.71875 C 29.582031 -12.175781 29.46875 -11.359375 29.46875 -10.265625 L 29.46875 -2.328125 C 27.488281 -1.234375 25.722656 -0.46875 24.171875 -0.03125 C 22.617188 0.394531 20.71875 0.609375 18.46875 0.609375 C 14.9375 0.609375 11.90625 -0.0664062 9.375 -1.421875 C 6.84375 -2.785156 4.9375 -4.519531 3.65625 -6.625 C 2.382812 -8.726562 1.75 -10.894531 1.75 -13.125 C 1.75 -15.945312 2.460938 -18.539062 3.890625 -20.90625 C 5.316406 -23.269531 7.257812 -25.144531 9.71875 -26.53125 C 12.175781 -27.925781 14.890625 -28.625 17.859375 -28.625 Z M 17.859375 -28.625 "/></g></g></g><g fill="currentColor"><g transform="translate(144.94945, 51.75812)"><g><path d="M 24.140625 -20.703125 C 24.140625 -18.992188 23.550781 -17.519531 22.375 -16.28125 C 21.207031 -15.050781 19.429688 -14.132812 17.046875 -13.53125 L 23.515625 -5.5 C 24.304688 -4.519531 24.972656 -3.738281 25.515625 -3.15625 C 26.054688 -2.570312 26.726562 -2.039062 27.53125 -1.5625 C 28.332031 -1.09375 29.222656 -0.816406 30.203125 -0.734375 L 30.203125 0 L 22.90625 0 L 12.359375 -13.125 L 9.65625 -13.125 L 9.65625 -4.03125 C 9.65625 -2.832031 9.960938 -1.984375 10.578125 -1.484375 C 11.191406 -0.984375 12.148438 -0.734375 13.453125 -0.734375 L 13.609375 -0.734375 L 13.609375 0 L 1.390625 0 L 1.390625 -0.734375 C 2.691406 -0.734375 3.660156 -0.960938 4.296875 -1.421875 C 4.941406 -1.890625 5.265625 -2.71875 5.265625 -3.90625 L 5.265625 -24.171875 C 5.265625 -25.253906 4.941406 -26.039062 4.296875 -26.53125 C 3.660156 -27.019531 2.691406 -27.265625 1.390625 -27.265625 L 1.390625 -28 L 14.46875 -28 C 17.132812 -28 19.410156 -27.398438 21.296875 -26.203125 C 23.191406 -25.015625 24.140625 -23.179688 24.140625 -20.703125 Z M 9.65625 -25.84375 L 9.65625 -14.515625 L 10.6875 -14.515625 C 13.425781 -14.515625 15.5 -15.050781 16.90625 -16.125 C 18.320312 -17.195312 19.03125 -18.6875 19.03125 -20.59375 C 19.03125 -22.25 18.492188 -23.660156 17.421875 -24.828125 C 16.347656 -25.992188 14.832031 -26.578125 12.875 -26.578125 C 11.820312 -26.578125 10.75 -26.332031 9.65625 -25.84375 Z M 9.65625 -25.84375 "/></g></g></g><g fill="currentColor"><g transform="translate(176.382875, 51.75812)"><g><path d="M 4.6875 -5.421875 L 15.125 -29.234375 L 15.859375 -29.234375 L 26.859375 -3.875 C 27.265625 -2.945312 27.648438 -2.257812 28.015625 -1.8125 C 28.390625 -1.363281 28.78125 -1.070312 29.1875 -0.9375 C 29.59375 -0.800781 30.148438 -0.734375 30.859375 -0.734375 L 30.859375 0 L 19.359375 0 L 19.359375 -0.734375 C 20.335938 -0.734375 21.070312 -0.910156 21.5625 -1.265625 C 22.050781 -1.617188 22.296875 -2.09375 22.296875 -2.6875 C 22.296875 -3.207031 22.117188 -3.847656 21.765625 -4.609375 L 19.65625 -9.421875 L 8.359375 -9.421875 L 6.03125 -4.078125 C 5.757812 -3.535156 5.625 -3.046875 5.625 -2.609375 C 5.625 -1.359375 6.628906 -0.734375 8.640625 -0.734375 L 8.640625 0 L 0.578125 0 L 0.578125 -0.734375 C 1.253906 -0.816406 1.800781 -1.015625 2.21875 -1.328125 C 2.644531 -1.640625 3.023438 -2.09375 3.359375 -2.6875 C 3.703125 -3.289062 4.144531 -4.203125 4.6875 -5.421875 Z M 19 -10.96875 L 14.015625 -22.34375 L 9.046875 -10.96875 Z M 19 -10.96875 "/></g></g></g><g fill="currentColor"><g transform="translate(207.8163, 51.75812)"><g><path d="M 26.78125 -7.34375 L 26.78125 -24.140625 C 26.78125 -25.359375 26.5625 -26.175781 26.125 -26.59375 C 25.695312 -27.019531 24.894531 -27.242188 23.71875 -27.265625 L 22.703125 -27.265625 L 22.703125 -28 L 33.015625 -28 L 33.015625 -27.265625 L 32.15625 -27.265625 C 31.070312 -27.265625 30.296875 -27.195312 29.828125 -27.0625 C 29.367188 -26.925781 29.050781 -26.609375 28.875 -26.109375 C 28.707031 -25.609375 28.625 -24.785156 28.625 -23.640625 L 28.625 0.328125 L 28.046875 0.328125 L 8.03125 -22.21875 L 8.03125 -4.734375 C 8.03125 -3.210938 8.332031 -2.164062 8.9375 -1.59375 C 9.550781 -1.019531 10.609375 -0.734375 12.109375 -0.734375 L 12.109375 0 L 2 0 L 2 -0.734375 L 2.234375 -0.734375 C 3.546875 -0.734375 4.539062 -0.96875 5.21875 -1.4375 C 5.894531 -1.914062 6.234375 -2.796875 6.234375 -4.078125 L 6.234375 -24.015625 C 5.523438 -25.203125 4.722656 -26.039062 3.828125 -26.53125 C 2.929688 -27.019531 1.832031 -27.265625 0.53125 -27.265625 L 0.53125 -28 L 8.6875 -28 Z M 26.78125 -7.34375 "/></g></g></g><g fill="currentColor"><g transform="translate(241.369753, 51.75812)"><g><path d="M 4.6875 -5.421875 L 15.125 -29.234375 L 15.859375 -29.234375 L 26.859375 -3.875 C 27.265625 -2.945312 27.648438 -2.257812 28.015625 -1.8125 C 28.390625 -1.363281 28.78125 -1.070312 29.1875 -0.9375 C 29.59375 -0.800781 30.148438 -0.734375 30.859375 -0.734375 L 30.859375 0 L 19.359375 0 L 19.359375 -0.734375 C 20.335938 -0.734375 21.070312 -0.910156 21.5625 -1.265625 C 22.050781 -1.617188 22.296875 -2.09375 22.296875 -2.6875 C 22.296875 -3.207031 22.117188 -3.847656 21.765625 -4.609375 L 19.65625 -9.421875 L 8.359375 -9.421875 L 6.03125 -4.078125 C 5.757812 -3.535156 5.625 -3.046875 5.625 -2.609375 C 5.625 -1.359375 6.628906 -0.734375 8.640625 -0.734375 L 8.640625 0 L 0.578125 0 L 0.578125 -0.734375 C 1.253906 -0.816406 1.800781 -1.015625 2.21875 -1.328125 C 2.644531 -1.640625 3.023438 -2.09375 3.359375 -2.6875 C 3.703125 -3.289062 4.144531 -4.203125 4.6875 -5.421875 Z M 19 -10.96875 L 14.015625 -22.34375 L 9.046875 -10.96875 Z M 19 -10.96875 "/></g></g></g><g fill="currentColor"><g transform="translate(272.803185, 51.75812)"><g><path d="M 31.875 -14.015625 C 31.875 -11.222656 31.144531 -8.765625 29.6875 -6.640625 C 28.238281 -4.523438 26.273438 -2.890625 23.796875 -1.734375 C 21.328125 -0.578125 18.625 0 15.6875 0 L 1.296875 0 L 1.296875 -0.734375 C 2.765625 -0.765625 3.816406 -1.007812 4.453125 -1.46875 C 5.097656 -1.925781 5.421875 -2.8125 5.421875 -4.125 L 5.421875 -23.96875 C 5.421875 -25.269531 5.082031 -26.144531 4.40625 -26.59375 C 3.726562 -27.039062 2.691406 -27.265625 1.296875 -27.265625 L 1.296875 -28 L 16.921875 -28 C 20.046875 -28 22.738281 -27.332031 25 -26 C 27.269531 -24.675781 28.984375 -22.945312 30.140625 -20.8125 C 31.296875 -18.675781 31.875 -16.410156 31.875 -14.015625 Z M 9.828125 -25.765625 L 9.828125 -2.03125 C 11.179688 -1.625 12.648438 -1.421875 14.234375 -1.421875 C 16.734375 -1.421875 18.929688 -1.929688 20.828125 -2.953125 C 22.734375 -3.972656 24.203125 -5.421875 25.234375 -7.296875 C 26.265625 -9.171875 26.78125 -11.332031 26.78125 -13.78125 C 26.78125 -16.226562 26.265625 -18.410156 25.234375 -20.328125 C 24.203125 -22.242188 22.738281 -23.742188 20.84375 -24.828125 C 18.957031 -25.910156 16.789062 -26.453125 14.34375 -26.453125 C 12.71875 -26.453125 11.210938 -26.222656 9.828125 -25.765625 Z M 9.828125 -25.765625 "/></g></g></g><g fill="currentColor"><g transform="translate(306.35663, 51.75812)"><g><path d="M 4.6875 -5.421875 L 15.125 -29.234375 L 15.859375 -29.234375 L 26.859375 -3.875 C 27.265625 -2.945312 27.648438 -2.257812 28.015625 -1.8125 C 28.390625 -1.363281 28.78125 -1.070312 29.1875 -0.9375 C 29.59375 -0.800781 30.148438 -0.734375 30.859375 -0.734375 L 30.859375 0 L 19.359375 0 L 19.359375 -0.734375 C 20.335938 -0.734375 21.070312 -0.910156 21.5625 -1.265625 C 22.050781 -1.617188 22.296875 -2.09375 22.296875 -2.6875 C 22.296875 -3.207031 22.117188 -3.847656 21.765625 -4.609375 L 19.65625 -9.421875 L 8.359375 -9.421875 L 6.03125 -4.078125 C 5.757812 -3.535156 5.625 -3.046875 5.625 -2.609375 C 5.625 -1.359375 6.628906 -0.734375 8.640625 -0.734375 L 8.640625 0 L 0.578125 0 L 0.578125 -0.734375 C 1.253906 -0.816406 1.800781 -1.015625 2.21875 -1.328125 C 2.644531 -1.640625 3.023438 -2.09375 3.359375 -2.6875 C 3.703125 -3.289062 4.144531 -4.203125 4.6875 -5.421875 Z M 19 -10.96875 L 14.015625 -22.34375 L 9.046875 -10.96875 Z M 19 -10.96875 "/></g></g></g><g fill="currentColor"><g transform="translate(337.791757, 51.75812)"><g/></g></g><g clip-path="url(#c5426d234e)"><g transform="matrix(1, 0, 0, 1, 350, 24)"><g clip-path="url(#ffaafc40cf)"><g fill="currentColor"><g transform="translate(0.413199, 26.875591)"><g><path d="M 12.71875 -24.234375 C 11.707031 -24.234375 10.9375 -24.144531 10.40625 -23.96875 C 9.875 -23.789062 9.5 -23.460938 9.28125 -22.984375 C 9.0625 -22.515625 8.953125 -21.832031 8.953125 -20.9375 L 8.953125 -3.625 C 8.953125 -2.800781 9.082031 -2.175781 9.34375 -1.75 C 9.613281 -1.332031 10.015625 -1.050781 10.546875 -0.90625 C 11.078125 -0.757812 11.800781 -0.675781 12.71875 -0.65625 L 12.71875 0 L 1.265625 0 L 1.265625 -0.65625 C 2.234375 -0.675781 2.976562 -0.757812 3.5 -0.90625 C 4.019531 -1.050781 4.40625 -1.332031 4.65625 -1.75 C 4.90625 -2.175781 5.03125 -2.8125 5.03125 -3.65625 L 5.03125 -20.9375 C 5.03125 -21.832031 4.914062 -22.507812 4.6875 -22.96875 C 4.457031 -23.425781 4.082031 -23.742188 3.5625 -23.921875 C 3.050781 -24.109375 2.285156 -24.210938 1.265625 -24.234375 L 1.265625 -24.890625 L 12.71875 -24.890625 Z M 12.71875 -24.234375 "/></g></g></g><g fill="currentColor"><g transform="translate(14.358933, 26.875591)"><g><path d="M 6.484375 -13.65625 C 7.742188 -15.007812 8.769531 -15.941406 9.5625 -16.453125 C 10.363281 -16.960938 11.25 -17.21875 12.21875 -17.21875 C 13.28125 -17.21875 14.132812 -16.929688 14.78125 -16.359375 C 15.4375 -15.796875 15.90625 -15.101562 16.1875 -14.28125 C 16.476562 -13.457031 16.625 -12.644531 16.625 -11.84375 L 16.625 -3.84375 C 16.625 -2.613281 16.816406 -1.785156 17.203125 -1.359375 C 17.597656 -0.929688 18.265625 -0.695312 19.203125 -0.65625 L 19.203125 0 L 10.71875 0 L 10.71875 -0.65625 C 11.5 -0.65625 12.09375 -0.738281 12.5 -0.90625 C 12.90625 -1.070312 13.195312 -1.378906 13.375 -1.828125 C 13.5625 -2.273438 13.65625 -2.945312 13.65625 -3.84375 L 13.65625 -12 C 13.65625 -12.769531 13.398438 -13.472656 12.890625 -14.109375 C 12.390625 -14.753906 11.691406 -15.078125 10.796875 -15.078125 C 10.046875 -15.078125 9.332031 -14.875 8.65625 -14.46875 C 7.976562 -14.070312 7.253906 -13.460938 6.484375 -12.640625 L 6.484375 -3.84375 C 6.484375 -2.582031 6.6875 -1.738281 7.09375 -1.3125 C 7.507812 -0.894531 8.222656 -0.675781 9.234375 -0.65625 L 9.234375 0 L 0.90625 0 L 0.90625 -0.65625 C 1.65625 -0.726562 2.207031 -0.859375 2.5625 -1.046875 C 2.925781 -1.242188 3.175781 -1.546875 3.3125 -1.953125 C 3.445312 -2.367188 3.515625 -2.960938 3.515625 -3.734375 L 3.515625 -12.75 C 3.515625 -13.3125 3.394531 -13.796875 3.15625 -14.203125 C 2.914062 -14.609375 2.53125 -14.8125 2 -14.8125 C 1.75 -14.8125 1.519531 -14.769531 1.3125 -14.6875 C 1.113281 -14.601562 0.976562 -14.550781 0.90625 -14.53125 L 0.65625 -15.21875 L 5.875 -17.21875 L 6.484375 -17.21875 Z M 6.484375 -13.65625 "/></g></g></g><g fill="currentColor"><g transform="translate(34.353864, 26.875591)"><g><path d="M 6.015625 -22.140625 L 6.59375 -22.140625 L 6.59375 -16.8125 L 10.40625 -16.8125 L 10.40625 -15.6875 L 6.59375 -15.6875 L 6.59375 -4.015625 C 6.59375 -3.390625 6.773438 -2.828125 7.140625 -2.328125 C 7.503906 -1.835938 8.007812 -1.59375 8.65625 -1.59375 C 9.09375 -1.59375 9.476562 -1.691406 9.8125 -1.890625 C 10.15625 -2.097656 10.519531 -2.457031 10.90625 -2.96875 L 11.625 -2.96875 C 11 -1.8125 10.320312 -0.941406 9.59375 -0.359375 C 8.875 0.210938 8.03125 0.5 7.0625 0.5 C 6 0.5 5.160156 0.109375 4.546875 -0.671875 C 3.929688 -1.453125 3.625 -2.519531 3.625 -3.875 L 3.625 -15.6875 L 1.046875 -15.6875 L 1.046875 -16.421875 C 2.285156 -16.921875 3.328125 -17.660156 4.171875 -18.640625 C 5.015625 -19.617188 5.628906 -20.785156 6.015625 -22.140625 Z M 6.015625 -22.140625 "/></g></g></g><g fill="currentColor"><g transform="translate(46.416016, 26.875591)"><g><path d="M 8.515625 -17.21875 C 10.398438 -17.21875 11.925781 -16.585938 13.09375 -15.328125 C 14.269531 -14.066406 14.859375 -12.4375 14.859375 -10.4375 L 3.484375 -10.4375 L 3.484375 -9.96875 C 3.484375 -8.6875 3.734375 -7.457031 4.234375 -6.28125 C 4.742188 -5.113281 5.457031 -4.164062 6.375 -3.4375 C 7.289062 -2.71875 8.332031 -2.359375 9.5 -2.359375 C 11.789062 -2.359375 13.394531 -3.640625 14.3125 -6.203125 L 14.859375 -5.90625 C 14.472656 -3.925781 13.675781 -2.363281 12.46875 -1.21875 C 11.257812 -0.0703125 9.804688 0.5 8.109375 0.5 C 6.859375 0.5 5.691406 0.175781 4.609375 -0.46875 C 3.535156 -1.125 2.664062 -2.101562 2 -3.40625 C 1.34375 -4.707031 1.015625 -6.289062 1.015625 -8.15625 C 1.015625 -9.9375 1.328125 -11.515625 1.953125 -12.890625 C 2.585938 -14.273438 3.472656 -15.34375 4.609375 -16.09375 C 5.742188 -16.84375 7.046875 -17.21875 8.515625 -17.21875 Z M 7.5 -15.9375 C 6.488281 -15.9375 5.613281 -15.535156 4.875 -14.734375 C 4.132812 -13.941406 3.691406 -12.882812 3.546875 -11.5625 L 11.125 -11.5625 C 11.070312 -12.863281 10.738281 -13.914062 10.125 -14.71875 C 9.507812 -15.53125 8.632812 -15.9375 7.5 -15.9375 Z M 7.5 -15.9375 "/></g></g></g><g fill="currentColor"><g transform="translate(62.281553, 26.875591)"><g><path d="M 6.703125 -13.8125 L 6.78125 -13.8125 C 7.40625 -14.914062 8.082031 -15.757812 8.8125 -16.34375 C 9.550781 -16.925781 10.382812 -17.21875 11.3125 -17.21875 C 11.957031 -17.21875 12.484375 -17.015625 12.890625 -16.609375 C 13.304688 -16.210938 13.515625 -15.722656 13.515625 -15.140625 C 13.515625 -14.679688 13.347656 -14.296875 13.015625 -13.984375 C 12.691406 -13.671875 12.328125 -13.515625 11.921875 -13.515625 C 11.578125 -13.515625 11.296875 -13.578125 11.078125 -13.703125 C 10.867188 -13.835938 10.65625 -14.015625 10.4375 -14.234375 C 10.382812 -14.265625 10.296875 -14.335938 10.171875 -14.453125 C 10.054688 -14.578125 9.929688 -14.664062 9.796875 -14.71875 C 9.671875 -14.78125 9.535156 -14.8125 9.390625 -14.8125 C 8.828125 -14.8125 8.347656 -14.585938 7.953125 -14.140625 C 7.554688 -13.703125 7.140625 -13.09375 6.703125 -12.3125 L 6.703125 -3.84375 C 6.703125 -2.894531 6.800781 -2.191406 7 -1.734375 C 7.207031 -1.273438 7.53125 -0.976562 7.96875 -0.84375 C 8.40625 -0.71875 9.046875 -0.65625 9.890625 -0.65625 L 9.890625 0 L 0.984375 0 L 0.984375 -0.65625 L 1.15625 -0.65625 C 2.050781 -0.65625 2.703125 -0.867188 3.109375 -1.296875 C 3.523438 -1.734375 3.734375 -2.535156 3.734375 -3.703125 L 3.734375 -11.953125 C 3.734375 -13.085938 3.609375 -13.832031 3.359375 -14.1875 C 3.117188 -14.539062 2.703125 -14.71875 2.109375 -14.71875 C 1.742188 -14.71875 1.441406 -14.644531 1.203125 -14.5 L 0.984375 -15.109375 L 6.046875 -17.21875 L 6.703125 -17.21875 Z M 6.703125 -13.8125 "/></g></g></g><g fill="currentColor"><g transform="translate(76.227287, 26.875591)"><g><path d="M 6.484375 -13.65625 C 7.742188 -15.007812 8.769531 -15.941406 9.5625 -16.453125 C 10.363281 -16.960938 11.25 -17.21875 12.21875 -17.21875 C 13.28125 -17.21875 14.132812 -16.929688 14.78125 -16.359375 C 15.4375 -15.796875 15.90625 -15.101562 16.1875 -14.28125 C 16.476562 -13.457031 16.625 -12.644531 16.625 -11.84375 L 16.625 -3.84375 C 16.625 -2.613281 16.816406 -1.785156 17.203125 -1.359375 C 17.597656 -0.929688 18.265625 -0.695312 19.203125 -0.65625 L 19.203125 0 L 10.71875 0 L 10.71875 -0.65625 C 11.5 -0.65625 12.09375 -0.738281 12.5 -0.90625 C 12.90625 -1.070312 13.195312 -1.378906 13.375 -1.828125 C 13.5625 -2.273438 13.65625 -2.945312 13.65625 -3.84375 L 13.65625 -12 C 13.65625 -12.769531 13.398438 -13.472656 12.890625 -14.109375 C 12.390625 -14.753906 11.691406 -15.078125 10.796875 -15.078125 C 10.046875 -15.078125 9.332031 -14.875 8.65625 -14.46875 C 7.976562 -14.070312 7.253906 -13.460938 6.484375 -12.640625 L 6.484375 -3.84375 C 6.484375 -2.582031 6.6875 -1.738281 7.09375 -1.3125 C 7.507812 -0.894531 8.222656 -0.675781 9.234375 -0.65625 L 9.234375 0 L 0.90625 0 L 0.90625 -0.65625 C 1.65625 -0.726562 2.207031 -0.859375 2.5625 -1.046875 C 2.925781 -1.242188 3.175781 -1.546875 3.3125 -1.953125 C 3.445312 -2.367188 3.515625 -2.960938 3.515625 -3.734375 L 3.515625 -12.75 C 3.515625 -13.3125 3.394531 -13.796875 3.15625 -14.203125 C 2.914062 -14.609375 2.53125 -14.8125 2 -14.8125 C 1.75 -14.8125 1.519531 -14.769531 1.3125 -14.6875 C 1.113281 -14.601562 0.976562 -14.550781 0.90625 -14.53125 L 0.65625 -15.21875 L 5.875 -17.21875 L 6.484375 -17.21875 Z M 6.484375 -13.65625 "/></g></g></g><g fill="currentColor"><g transform="translate(96.222218, 26.875591)"><g><path d="M 8.65625 -17.21875 C 12.28125 -17.21875 14.09375 -15.765625 14.09375 -12.859375 L 14.09375 -3.265625 C 14.09375 -2.609375 14.1875 -2.175781 14.375 -1.96875 C 14.570312 -1.769531 14.828125 -1.671875 15.140625 -1.671875 C 15.503906 -1.671875 15.84375 -1.769531 16.15625 -1.96875 C 16.46875 -2.175781 16.925781 -2.570312 17.53125 -3.15625 L 17.53125 -2.25 C 16.613281 -1.207031 15.859375 -0.488281 15.265625 -0.09375 C 14.679688 0.300781 14.070312 0.5 13.4375 0.5 C 12.738281 0.5 12.175781 0.253906 11.75 -0.234375 C 11.332031 -0.734375 11.125 -1.460938 11.125 -2.421875 C 10.0625 -1.410156 9.078125 -0.671875 8.171875 -0.203125 C 7.265625 0.265625 6.28125 0.5 5.21875 0.5 C 4.15625 0.5 3.257812 0.101562 2.53125 -0.6875 C 1.8125 -1.488281 1.453125 -2.457031 1.453125 -3.59375 C 1.453125 -5.519531 2.476562 -7.015625 4.53125 -8.078125 C 6.488281 -9.117188 8.6875 -10.070312 11.125 -10.9375 L 11.125 -11.953125 C 11.125 -12.921875 11.054688 -13.691406 10.921875 -14.265625 C 10.785156 -14.847656 10.484375 -15.316406 10.015625 -15.671875 C 9.546875 -16.023438 8.828125 -16.203125 7.859375 -16.203125 C 6.921875 -16.203125 6.222656 -15.96875 5.765625 -15.5 C 5.304688 -15.039062 5.078125 -14.476562 5.078125 -13.8125 L 5.109375 -12.859375 C 5.109375 -12.453125 4.972656 -12.113281 4.703125 -11.84375 C 4.441406 -11.582031 4.109375 -11.453125 3.703125 -11.453125 C 3.234375 -11.453125 2.851562 -11.582031 2.5625 -11.84375 C 2.28125 -12.113281 2.140625 -12.488281 2.140625 -12.96875 C 2.140625 -14.175781 2.707031 -15.1875 3.84375 -16 C 4.976562 -16.8125 6.582031 -17.21875 8.65625 -17.21875 Z M 4.53125 -4.53125 C 4.53125 -3.707031 4.789062 -3.003906 5.3125 -2.421875 C 5.832031 -1.847656 6.476562 -1.5625 7.25 -1.5625 C 8.476562 -1.5625 9.769531 -2.164062 11.125 -3.375 L 11.125 -9.96875 C 9.4375 -9.257812 8.128906 -8.644531 7.203125 -8.125 C 6.285156 -7.613281 5.609375 -7.078125 5.171875 -6.515625 C 4.742188 -5.960938 4.53125 -5.300781 4.53125 -4.53125 Z M 4.53125 -4.53125 "/></g></g></g><g fill="currentColor"><g transform="translate(114.333567, 26.875591)"><g><path d="M 6.015625 -22.140625 L 6.59375 -22.140625 L 6.59375 -16.8125 L 10.40625 -16.8125 L 10.40625 -15.6875 L 6.59375 -15.6875 L 6.59375 -4.015625 C 6.59375 -3.390625 6.773438 -2.828125 7.140625 -2.328125 C 7.503906 -1.835938 8.007812 -1.59375 8.65625 -1.59375 C 9.09375 -1.59375 9.476562 -1.691406 9.8125 -1.890625 C 10.15625 -2.097656 10.519531 -2.457031 10.90625 -2.96875 L 11.625 -2.96875 C 11 -1.8125 10.320312 -0.941406 9.59375 -0.359375 C 8.875 0.210938 8.03125 0.5 7.0625 0.5 C 6 0.5 5.160156 0.109375 4.546875 -0.671875 C 3.929688 -1.453125 3.625 -2.519531 3.625 -3.875 L 3.625 -15.6875 L 1.046875 -15.6875 L 1.046875 -16.421875 C 2.285156 -16.921875 3.328125 -17.660156 4.171875 -18.640625 C 5.015625 -19.617188 5.628906 -20.785156 6.015625 -22.140625 Z M 6.015625 -22.140625 "/></g></g></g><g clip-path="url(#80ed3b1db5)"><g fill="currentColor"><g transform="translate(126.395718, 26.875591)"><g><path d="M 4.921875 -26.09375 C 5.453125 -26.09375 5.898438 -25.910156 6.265625 -25.546875 C 6.628906 -25.179688 6.8125 -24.742188 6.8125 -24.234375 C 6.8125 -23.703125 6.628906 -23.253906 6.265625 -22.890625 C 5.898438 -22.535156 5.453125 -22.359375 4.921875 -22.359375 C 4.421875 -22.359375 3.988281 -22.535156 3.625 -22.890625 C 3.257812 -23.253906 3.078125 -23.703125 3.078125 -24.234375 C 3.078125 -24.742188 3.257812 -25.179688 3.625 -25.546875 C 3.988281 -25.910156 4.421875 -26.09375 4.921875 -26.09375 Z M 6.515625 -3.765625 C 6.515625 -2.585938 6.707031 -1.78125 7.09375 -1.34375 C 7.488281 -0.90625 8.117188 -0.675781 8.984375 -0.65625 L 8.984375 0 L 0.828125 0 L 0.828125 -0.65625 C 1.816406 -0.65625 2.515625 -0.882812 2.921875 -1.34375 C 3.335938 -1.800781 3.546875 -2.632812 3.546875 -3.84375 L 3.546875 -12.609375 C 3.546875 -13.265625 3.398438 -13.796875 3.109375 -14.203125 C 2.828125 -14.609375 2.382812 -14.8125 1.78125 -14.8125 C 1.507812 -14.8125 1.265625 -14.753906 1.046875 -14.640625 L 0.828125 -15.296875 L 5.875 -17.21875 L 6.515625 -17.21875 Z M 6.515625 -3.765625 "/></g></g></g></g><g fill="currentColor"><g transform="translate(136.212069, 26.875591)"><g><path d="M 10.328125 -17.21875 C 11.753906 -17.21875 13.085938 -16.832031 14.328125 -16.0625 C 15.578125 -15.300781 16.566406 -14.285156 17.296875 -13.015625 C 18.035156 -11.753906 18.40625 -10.398438 18.40625 -8.953125 C 18.40625 -7.253906 18.003906 -5.679688 17.203125 -4.234375 C 16.410156 -2.785156 15.34375 -1.632812 14 -0.78125 C 12.664062 0.0703125 11.234375 0.5 9.703125 0.5 C 8.253906 0.5 6.90625 0.117188 5.65625 -0.640625 C 4.414062 -1.398438 3.429688 -2.425781 2.703125 -3.71875 C 1.984375 -5.007812 1.625 -6.414062 1.625 -7.9375 C 1.625 -9.582031 2.019531 -11.113281 2.8125 -12.53125 C 3.613281 -13.957031 4.6875 -15.09375 6.03125 -15.9375 C 7.375 -16.789062 8.804688 -17.21875 10.328125 -17.21875 Z M 4.890625 -9.390625 C 4.890625 -7.960938 5.113281 -6.585938 5.5625 -5.265625 C 6.007812 -3.953125 6.65625 -2.875 7.5 -2.03125 C 8.34375 -1.1875 9.359375 -0.765625 10.546875 -0.765625 C 11.921875 -0.765625 13.03125 -1.375 13.875 -2.59375 C 14.71875 -3.8125 15.140625 -5.421875 15.140625 -7.421875 C 15.140625 -9.015625 14.898438 -10.457031 14.421875 -11.75 C 13.941406 -13.050781 13.265625 -14.070312 12.390625 -14.8125 C 11.523438 -15.5625 10.535156 -15.9375 9.421875 -15.9375 C 8.046875 -15.9375 6.945312 -15.34375 6.125 -14.15625 C 5.300781 -12.976562 4.890625 -11.390625 4.890625 -9.390625 Z M 4.890625 -9.390625 "/></g></g></g><g fill="currentColor"><g transform="translate(156.207001, 26.875591)"><g><path d="M 6.484375 -13.65625 C 7.742188 -15.007812 8.769531 -15.941406 9.5625 -16.453125 C 10.363281 -16.960938 11.25 -17.21875 12.21875 -17.21875 C 13.28125 -17.21875 14.132812 -16.929688 14.78125 -16.359375 C 15.4375 -15.796875 15.90625 -15.101562 16.1875 -14.28125 C 16.476562 -13.457031 16.625 -12.644531 16.625 -11.84375 L 16.625 -3.84375 C 16.625 -2.613281 16.816406 -1.785156 17.203125 -1.359375 C 17.597656 -0.929688 18.265625 -0.695312 19.203125 -0.65625 L 19.203125 0 L 10.71875 0 L 10.71875 -0.65625 C 11.5 -0.65625 12.09375 -0.738281 12.5 -0.90625 C 12.90625 -1.070312 13.195312 -1.378906 13.375 -1.828125 C 13.5625 -2.273438 13.65625 -2.945312 13.65625 -3.84375 L 13.65625 -12 C 13.65625 -12.769531 13.398438 -13.472656 12.890625 -14.109375 C 12.390625 -14.753906 11.691406 -15.078125 10.796875 -15.078125 C 10.046875 -15.078125 9.332031 -14.875 8.65625 -14.46875 C 7.976562 -14.070312 7.253906 -13.460938 6.484375 -12.640625 L 6.484375 -3.84375 C 6.484375 -2.582031 6.6875 -1.738281 7.09375 -1.3125 C 7.507812 -0.894531 8.222656 -0.675781 9.234375 -0.65625 L 9.234375 0 L 0.90625 0 L 0.90625 -0.65625 C 1.65625 -0.726562 2.207031 -0.859375 2.5625 -1.046875 C 2.925781 -1.242188 3.175781 -1.546875 3.3125 -1.953125 C 3.445312 -2.367188 3.515625 -2.960938 3.515625 -3.734375 L 3.515625 -12.75 C 3.515625 -13.3125 3.394531 -13.796875 3.15625 -14.203125 C 2.914062 -14.609375 2.53125 -14.8125 2 -14.8125 C 1.75 -14.8125 1.519531 -14.769531 1.3125 -14.6875 C 1.113281 -14.601562 0.976562 -14.550781 0.90625 -14.53125 L 0.65625 -15.21875 L 5.875 -17.21875 L 6.484375 -17.21875 Z M 6.484375 -13.65625 "/></g></g></g><g fill="currentColor"><g transform="translate(176.201932, 26.875591)"><g><path d="M 8.65625 -17.21875 C 12.28125 -17.21875 14.09375 -15.765625 14.09375 -12.859375 L 14.09375 -3.265625 C 14.09375 -2.609375 14.1875 -2.175781 14.375 -1.96875 C 14.570312 -1.769531 14.828125 -1.671875 15.140625 -1.671875 C 15.503906 -1.671875 15.84375 -1.769531 16.15625 -1.96875 C 16.46875 -2.175781 16.925781 -2.570312 17.53125 -3.15625 L 17.53125 -2.25 C 16.613281 -1.207031 15.859375 -0.488281 15.265625 -0.09375 C 14.679688 0.300781 14.070312 0.5 13.4375 0.5 C 12.738281 0.5 12.175781 0.253906 11.75 -0.234375 C 11.332031 -0.734375 11.125 -1.460938 11.125 -2.421875 C 10.0625 -1.410156 9.078125 -0.671875 8.171875 -0.203125 C 7.265625 0.265625 6.28125 0.5 5.21875 0.5 C 4.15625 0.5 3.257812 0.101562 2.53125 -0.6875 C 1.8125 -1.488281 1.453125 -2.457031 1.453125 -3.59375 C 1.453125 -5.519531 2.476562 -7.015625 4.53125 -8.078125 C 6.488281 -9.117188 8.6875 -10.070312 11.125 -10.9375 L 11.125 -11.953125 C 11.125 -12.921875 11.054688 -13.691406 10.921875 -14.265625 C 10.785156 -14.847656 10.484375 -15.316406 10.015625 -15.671875 C 9.546875 -16.023438 8.828125 -16.203125 7.859375 -16.203125 C 6.921875 -16.203125 6.222656 -15.96875 5.765625 -15.5 C 5.304688 -15.039062 5.078125 -14.476562 5.078125 -13.8125 L 5.109375 -12.859375 C 5.109375 -12.453125 4.972656 -12.113281 4.703125 -11.84375 C 4.441406 -11.582031 4.109375 -11.453125 3.703125 -11.453125 C 3.234375 -11.453125 2.851562 -11.582031 2.5625 -11.84375 C 2.28125 -12.113281 2.140625 -12.488281 2.140625 -12.96875 C 2.140625 -14.175781 2.707031 -15.1875 3.84375 -16 C 4.976562 -16.8125 6.582031 -17.21875 8.65625 -17.21875 Z M 4.53125 -4.53125 C 4.53125 -3.707031 4.789062 -3.003906 5.3125 -2.421875 C 5.832031 -1.847656 6.476562 -1.5625 7.25 -1.5625 C 8.476562 -1.5625 9.769531 -2.164062 11.125 -3.375 L 11.125 -9.96875 C 9.4375 -9.257812 8.128906 -8.644531 7.203125 -8.125 C 6.285156 -7.613281 5.609375 -7.078125 5.171875 -6.515625 C 4.742188 -5.960938 4.53125 -5.300781 4.53125 -4.53125 Z M 4.53125 -4.53125 "/></g></g></g><g clip-path="url(#c07b57523e)"><g fill="currentColor"><g transform="translate(194.31328, 26.875591)"><g><path d="M 6.5625 -25.984375 L 6.5625 -3.796875 C 6.5625 -2.597656 6.734375 -1.773438 7.078125 -1.328125 C 7.429688 -0.878906 8.066406 -0.65625 8.984375 -0.65625 L 8.984375 0 L 0.828125 0 L 0.828125 -0.65625 C 1.503906 -0.65625 2.035156 -0.726562 2.421875 -0.875 C 2.804688 -1.019531 3.097656 -1.320312 3.296875 -1.78125 C 3.492188 -2.238281 3.59375 -2.910156 3.59375 -3.796875 L 3.59375 -20.9375 C 3.59375 -22.5625 3.023438 -23.375 1.890625 -23.375 C 1.566406 -23.375 1.285156 -23.3125 1.046875 -23.1875 L 0.828125 -23.8125 L 5.90625 -25.984375 Z M 6.5625 -25.984375 "/></g></g></g></g><g fill="currentColor"><g transform="translate(204.129632, 26.875591)"><g/></g></g><g fill="currentColor"><g transform="translate(213.185294, 26.875591)"><g><path d="M 9.125 -25.4375 C 9.945312 -25.4375 10.660156 -25.359375 11.265625 -25.203125 C 11.867188 -25.046875 12.484375 -24.832031 13.109375 -24.5625 C 13.429688 -24.445312 13.742188 -24.335938 14.046875 -24.234375 C 14.347656 -24.140625 14.617188 -24.09375 14.859375 -24.09375 C 15.429688 -24.09375 15.890625 -24.539062 16.234375 -25.4375 L 16.921875 -25.4375 L 16.921875 -17.171875 L 16.234375 -17.171875 C 16.109375 -18.453125 15.722656 -19.617188 15.078125 -20.671875 C 14.441406 -21.722656 13.644531 -22.550781 12.6875 -23.15625 C 11.738281 -23.757812 10.722656 -24.0625 9.640625 -24.0625 C 8.453125 -24.0625 7.4375 -23.703125 6.59375 -22.984375 C 5.75 -22.273438 5.328125 -21.414062 5.328125 -20.40625 C 5.328125 -19.21875 5.90625 -18.1875 7.0625 -17.3125 C 7.882812 -16.71875 9.035156 -15.992188 10.515625 -15.140625 C 11.816406 -14.347656 12.898438 -13.660156 13.765625 -13.078125 C 14.640625 -12.503906 15.453125 -11.878906 16.203125 -11.203125 C 16.878906 -10.546875 17.414062 -9.796875 17.8125 -8.953125 C 18.207031 -8.109375 18.40625 -7.238281 18.40625 -6.34375 C 18.40625 -5.113281 18.066406 -3.960938 17.390625 -2.890625 C 16.710938 -1.828125 15.785156 -0.988281 14.609375 -0.375 C 13.441406 0.238281 12.160156 0.546875 10.765625 0.546875 C 9.867188 0.546875 9.078125 0.46875 8.390625 0.3125 C 7.703125 0.15625 6.984375 -0.0546875 6.234375 -0.328125 C 5.410156 -0.617188 4.796875 -0.765625 4.390625 -0.765625 C 3.734375 -0.765625 3.238281 -0.328125 2.90625 0.546875 L 2.25 0.546875 L 2.25 -7.828125 L 2.90625 -7.828125 C 3.3125 -5.679688 4.125 -3.976562 5.34375 -2.71875 C 6.5625 -1.457031 8.140625 -0.828125 10.078125 -0.828125 C 11.453125 -0.828125 12.582031 -1.203125 13.46875 -1.953125 C 14.363281 -2.703125 14.8125 -3.644531 14.8125 -4.78125 C 14.8125 -5.363281 14.703125 -5.894531 14.484375 -6.375 C 14.273438 -6.863281 13.914062 -7.382812 13.40625 -7.9375 C 12.945312 -8.414062 12.296875 -8.9375 11.453125 -9.5 C 10.609375 -10.070312 9.484375 -10.78125 8.078125 -11.625 C 6.898438 -12.351562 5.992188 -12.925781 5.359375 -13.34375 C 4.734375 -13.769531 4.265625 -14.140625 3.953125 -14.453125 C 2.722656 -15.710938 2.109375 -17.222656 2.109375 -18.984375 C 2.109375 -20.191406 2.414062 -21.285156 3.03125 -22.265625 C 3.644531 -23.242188 4.484375 -24.015625 5.546875 -24.578125 C 6.609375 -25.148438 7.800781 -25.4375 9.125 -25.4375 Z M 9.125 -25.4375 "/></g></g></g><g fill="currentColor"><g transform="translate(233.180226, 26.875591)"><g><path d="M 9.125 -17.21875 C 10.164062 -17.21875 11.132812 -17.035156 12.03125 -16.671875 C 12.925781 -16.304688 13.628906 -15.828125 14.140625 -15.234375 C 14.660156 -14.640625 14.921875 -14.003906 14.921875 -13.328125 C 14.921875 -12.898438 14.757812 -12.539062 14.4375 -12.25 C 14.113281 -11.957031 13.695312 -11.8125 13.1875 -11.8125 C 12.03125 -11.8125 11.390625 -12.460938 11.265625 -13.765625 C 11.222656 -14.367188 10.984375 -14.910156 10.546875 -15.390625 C 10.109375 -15.878906 9.429688 -16.125 8.515625 -16.125 C 7.085938 -16.125 5.9375 -15.554688 5.0625 -14.421875 C 4.195312 -13.285156 3.765625 -11.773438 3.765625 -9.890625 C 3.765625 -7.640625 4.296875 -5.832031 5.359375 -4.46875 C 6.421875 -3.101562 7.835938 -2.421875 9.609375 -2.421875 C 10.910156 -2.421875 12 -2.785156 12.875 -3.515625 C 13.757812 -4.242188 14.394531 -5.242188 14.78125 -6.515625 L 15.359375 -6.265625 C 14.878906 -4.234375 13.992188 -2.597656 12.703125 -1.359375 C 11.410156 -0.117188 9.941406 0.5 8.296875 0.5 C 6.898438 0.5 5.632812 0.128906 4.5 -0.609375 C 3.363281 -1.359375 2.472656 -2.390625 1.828125 -3.703125 C 1.191406 -5.023438 0.875 -6.519531 0.875 -8.1875 C 0.875 -9.925781 1.222656 -11.476562 1.921875 -12.84375 C 2.617188 -14.207031 3.59375 -15.273438 4.84375 -16.046875 C 6.101562 -16.828125 7.53125 -17.21875 9.125 -17.21875 Z M 9.125 -17.21875 "/></g></g></g><g clip-path="url(#19b0c98bc6)"><g fill="currentColor"><g transform="translate(249.045763, 26.875591)"><g><path d="M 6.515625 -13.65625 L 6.59375 -13.65625 C 7.394531 -14.75 8.300781 -15.613281 9.3125 -16.25 C 10.320312 -16.894531 11.320312 -17.21875 12.3125 -17.21875 C 13.738281 -17.21875 14.820312 -16.675781 15.5625 -15.59375 C 16.300781 -14.519531 16.671875 -13.195312 16.671875 -11.625 L 16.671875 -3.875 C 16.671875 -2.957031 16.765625 -2.269531 16.953125 -1.8125 C 17.148438 -1.351562 17.4375 -1.046875 17.8125 -0.890625 C 18.1875 -0.734375 18.722656 -0.65625 19.421875 -0.65625 L 19.421875 0 L 11.015625 0 L 11.015625 -0.65625 C 11.671875 -0.65625 12.179688 -0.726562 12.546875 -0.875 C 12.921875 -1.019531 13.207031 -1.320312 13.40625 -1.78125 C 13.601562 -2.238281 13.703125 -2.925781 13.703125 -3.84375 L 13.703125 -12.109375 C 13.703125 -12.878906 13.453125 -13.550781 12.953125 -14.125 C 12.460938 -14.707031 11.753906 -15 10.828125 -15 C 10.078125 -15 9.367188 -14.820312 8.703125 -14.46875 C 8.046875 -14.125 7.316406 -13.550781 6.515625 -12.75 L 6.515625 -3.84375 C 6.515625 -2.894531 6.601562 -2.195312 6.78125 -1.75 C 6.96875 -1.3125 7.257812 -1.019531 7.65625 -0.875 C 8.0625 -0.726562 8.648438 -0.65625 9.421875 -0.65625 L 9.421875 0 L 0.90625 0 L 0.90625 -0.65625 C 1.5625 -0.65625 2.070312 -0.734375 2.4375 -0.890625 C 2.8125 -1.046875 3.085938 -1.359375 3.265625 -1.828125 C 3.453125 -2.296875 3.546875 -2.976562 3.546875 -3.875 L 3.546875 -20.90625 C 3.546875 -21.914062 3.390625 -22.582031 3.078125 -22.90625 C 2.765625 -23.238281 2.367188 -23.40625 1.890625 -23.40625 C 1.546875 -23.40625 1.21875 -23.332031 0.90625 -23.1875 L 0.6875 -23.8125 L 5.875 -25.984375 L 6.515625 -25.984375 Z M 6.515625 -13.65625 "/></g></g></g></g><g fill="currentColor"><g transform="translate(269.040694, 26.875591)"><g><path d="M 10.328125 -17.21875 C 11.753906 -17.21875 13.085938 -16.832031 14.328125 -16.0625 C 15.578125 -15.300781 16.566406 -14.285156 17.296875 -13.015625 C 18.035156 -11.753906 18.40625 -10.398438 18.40625 -8.953125 C 18.40625 -7.253906 18.003906 -5.679688 17.203125 -4.234375 C 16.410156 -2.785156 15.34375 -1.632812 14 -0.78125 C 12.664062 0.0703125 11.234375 0.5 9.703125 0.5 C 8.253906 0.5 6.90625 0.117188 5.65625 -0.640625 C 4.414062 -1.398438 3.429688 -2.425781 2.703125 -3.71875 C 1.984375 -5.007812 1.625 -6.414062 1.625 -7.9375 C 1.625 -9.582031 2.019531 -11.113281 2.8125 -12.53125 C 3.613281 -13.957031 4.6875 -15.09375 6.03125 -15.9375 C 7.375 -16.789062 8.804688 -17.21875 10.328125 -17.21875 Z M 4.890625 -9.390625 C 4.890625 -7.960938 5.113281 -6.585938 5.5625 -5.265625 C 6.007812 -3.953125 6.65625 -2.875 7.5 -2.03125 C 8.34375 -1.1875 9.359375 -0.765625 10.546875 -0.765625 C 11.921875 -0.765625 13.03125 -1.375 13.875 -2.59375 C 14.71875 -3.8125 15.140625 -5.421875 15.140625 -7.421875 C 15.140625 -9.015625 14.898438 -10.457031 14.421875 -11.75 C 13.941406 -13.050781 13.265625 -14.070312 12.390625 -14.8125 C 11.523438 -15.5625 10.535156 -15.9375 9.421875 -15.9375 C 8.046875 -15.9375 6.945312 -15.34375 6.125 -14.15625 C 5.300781 -12.976562 4.890625 -11.390625 4.890625 -9.390625 Z M 4.890625 -9.390625 "/></g></g></g><g fill="currentColor"><g transform="translate(289.035625, 26.875591)"><g><path d="M 10.328125 -17.21875 C 11.753906 -17.21875 13.085938 -16.832031 14.328125 -16.0625 C 15.578125 -15.300781 16.566406 -14.285156 17.296875 -13.015625 C 18.035156 -11.753906 18.40625 -10.398438 18.40625 -8.953125 C 18.40625 -7.253906 18.003906 -5.679688 17.203125 -4.234375 C 16.410156 -2.785156 15.34375 -1.632812 14 -0.78125 C 12.664062 0.0703125 11.234375 0.5 9.703125 0.5 C 8.253906 0.5 6.90625 0.117188 5.65625 -0.640625 C 4.414062 -1.398438 3.429688 -2.425781 2.703125 -3.71875 C 1.984375 -5.007812 1.625 -6.414062 1.625 -7.9375 C 1.625 -9.582031 2.019531 -11.113281 2.8125 -12.53125 C 3.613281 -13.957031 4.6875 -15.09375 6.03125 -15.9375 C 7.375 -16.789062 8.804688 -17.21875 10.328125 -17.21875 Z M 4.890625 -9.390625 C 4.890625 -7.960938 5.113281 -6.585938 5.5625 -5.265625 C 6.007812 -3.953125 6.65625 -2.875 7.5 -2.03125 C 8.34375 -1.1875 9.359375 -0.765625 10.546875 -0.765625 C 11.921875 -0.765625 13.03125 -1.375 13.875 -2.59375 C 14.71875 -3.8125 15.140625 -5.421875 15.140625 -7.421875 C 15.140625 -9.015625 14.898438 -10.457031 14.421875 -11.75 C 13.941406 -13.050781 13.265625 -14.070312 12.390625 -14.8125 C 11.523438 -15.5625 10.535156 -15.9375 9.421875 -15.9375 C 8.046875 -15.9375 6.945312 -15.34375 6.125 -14.15625 C 5.300781 -12.976562 4.890625 -11.390625 4.890625 -9.390625 Z M 4.890625 -9.390625 "/></g></g></g><g clip-path="url(#a91beecf65)"><g fill="currentColor"><g transform="translate(309.030556, 26.875591)"><g><path d="M 6.5625 -25.984375 L 6.5625 -3.796875 C 6.5625 -2.597656 6.734375 -1.773438 7.078125 -1.328125 C 7.429688 -0.878906 8.066406 -0.65625 8.984375 -0.65625 L 8.984375 0 L 0.828125 0 L 0.828125 -0.65625 C 1.503906 -0.65625 2.035156 -0.726562 2.421875 -0.875 C 2.804688 -1.019531 3.097656 -1.320312 3.296875 -1.78125 C 3.492188 -2.238281 3.59375 -2.910156 3.59375 -3.796875 L 3.59375 -20.9375 C 3.59375 -22.5625 3.023438 -23.375 1.890625 -23.375 C 1.566406 -23.375 1.285156 -23.3125 1.046875 -23.1875 L 0.828125 -23.8125 L 5.90625 -25.984375 Z M 6.5625 -25.984375 "/></g></g></g></g></g></g></g><g fill="currentColor"><g transform="translate(221.738141, 81.139763)"><g><path d="M 9.875 -18.640625 C 8.84375 -18.640625 8.101562 -18.488281 7.65625 -18.1875 C 7.21875 -17.894531 7 -17.273438 7 -16.328125 L 7 -9.84375 C 8.78125 -11.3125 10.46875 -12.816406 12.0625 -14.359375 C 13.664062 -15.898438 14.46875 -17.039062 14.46875 -17.78125 C 14.46875 -18.101562 14.320312 -18.320312 14.03125 -18.4375 C 13.75 -18.5625 13.328125 -18.628906 12.765625 -18.640625 L 12.765625 -19.15625 L 19.796875 -19.15625 L 19.796875 -18.640625 L 19.5625 -18.640625 C 19.007812 -18.609375 18.484375 -18.472656 17.984375 -18.234375 C 17.484375 -17.992188 16.972656 -17.628906 16.453125 -17.140625 C 16.148438 -16.859375 15.628906 -16.328125 14.890625 -15.546875 C 13.953125 -14.597656 13.128906 -13.773438 12.421875 -13.078125 C 11.722656 -12.390625 10.875 -11.609375 9.875 -10.734375 L 17.03125 -3.65625 C 17.957031 -2.738281 18.707031 -2.0625 19.28125 -1.625 C 19.863281 -1.1875 20.410156 -0.890625 20.921875 -0.734375 C 21.429688 -0.578125 22.054688 -0.5 22.796875 -0.5 L 22.796875 0 L 12.9375 0 L 12.9375 -0.5 C 13.4375 -0.5 13.835938 -0.578125 14.140625 -0.734375 C 14.453125 -0.890625 14.609375 -1.140625 14.609375 -1.484375 C 14.609375 -1.703125 14.546875 -1.894531 14.421875 -2.0625 C 14.304688 -2.226562 14.070312 -2.488281 13.71875 -2.84375 L 7 -9.484375 L 7 -2.78125 C 7 -1.945312 7.207031 -1.363281 7.625 -1.03125 C 8.039062 -0.695312 8.742188 -0.519531 9.734375 -0.5 L 9.734375 0 L 1.109375 0 L 1.109375 -0.5 C 2.191406 -0.519531 2.941406 -0.6875 3.359375 -1 C 3.773438 -1.320312 3.984375 -1.9375 3.984375 -2.84375 L 3.984375 -16.328125 C 3.984375 -17.242188 3.753906 -17.859375 3.296875 -18.171875 C 2.847656 -18.484375 2.117188 -18.640625 1.109375 -18.640625 L 1.109375 -19.15625 L 9.875 -19.15625 Z M 9.875 -18.640625 "/></g></g></g><g fill="currentColor"><g transform="translate(244.680636, 81.139763)"><g><path d="M 6.546875 -13.234375 C 7.992188 -13.234375 9.164062 -12.75 10.0625 -11.78125 C 10.96875 -10.820312 11.421875 -9.570312 11.421875 -8.03125 L 2.671875 -8.03125 L 2.671875 -7.671875 C 2.671875 -6.679688 2.863281 -5.734375 3.25 -4.828125 C 3.644531 -3.929688 4.195312 -3.203125 4.90625 -2.640625 C 5.613281 -2.085938 6.410156 -1.8125 7.296875 -1.8125 C 9.066406 -1.8125 10.304688 -2.796875 11.015625 -4.765625 L 11.421875 -4.546875 C 11.128906 -3.023438 10.515625 -1.820312 9.578125 -0.9375 C 8.648438 -0.0507812 7.539062 0.390625 6.25 0.390625 C 5.28125 0.390625 4.378906 0.140625 3.546875 -0.359375 C 2.722656 -0.859375 2.054688 -1.609375 1.546875 -2.609375 C 1.035156 -3.617188 0.78125 -4.835938 0.78125 -6.265625 C 0.78125 -7.640625 1.019531 -8.859375 1.5 -9.921875 C 1.988281 -10.984375 2.664062 -11.800781 3.53125 -12.375 C 4.40625 -12.945312 5.410156 -13.234375 6.546875 -13.234375 Z M 5.765625 -12.265625 C 4.984375 -12.265625 4.3125 -11.957031 3.75 -11.34375 C 3.1875 -10.726562 2.847656 -9.910156 2.734375 -8.890625 L 8.5625 -8.890625 C 8.519531 -9.890625 8.257812 -10.703125 7.78125 -11.328125 C 7.3125 -11.953125 6.640625 -12.265625 5.765625 -12.265625 Z M 5.765625 -12.265625 "/></g></g></g><g fill="currentColor"><g transform="translate(256.890616, 81.139763)"><g><path d="M 4.984375 -10.515625 C 5.953125 -11.546875 6.742188 -12.253906 7.359375 -12.640625 C 7.972656 -13.035156 8.648438 -13.234375 9.390625 -13.234375 C 10.210938 -13.234375 10.875 -13.015625 11.375 -12.578125 C 11.875 -12.148438 12.234375 -11.617188 12.453125 -10.984375 C 12.679688 -10.347656 12.796875 -9.722656 12.796875 -9.109375 L 12.796875 -2.953125 C 12.796875 -2.003906 12.941406 -1.367188 13.234375 -1.046875 C 13.535156 -0.722656 14.050781 -0.539062 14.78125 -0.5 L 14.78125 0 L 8.25 0 L 8.25 -0.5 C 8.84375 -0.5 9.296875 -0.5625 9.609375 -0.6875 C 9.929688 -0.820312 10.160156 -1.0625 10.296875 -1.40625 C 10.441406 -1.75 10.515625 -2.265625 10.515625 -2.953125 L 10.515625 -9.234375 C 10.515625 -9.828125 10.316406 -10.367188 9.921875 -10.859375 C 9.535156 -11.347656 9 -11.59375 8.3125 -11.59375 C 7.726562 -11.59375 7.175781 -11.4375 6.65625 -11.125 C 6.132812 -10.820312 5.578125 -10.359375 4.984375 -9.734375 L 4.984375 -2.953125 C 4.984375 -1.984375 5.140625 -1.335938 5.453125 -1.015625 C 5.773438 -0.691406 6.328125 -0.519531 7.109375 -0.5 L 7.109375 0 L 0.703125 0 L 0.703125 -0.5 C 1.273438 -0.550781 1.695312 -0.648438 1.96875 -0.796875 C 2.25 -0.953125 2.441406 -1.1875 2.546875 -1.5 C 2.648438 -1.820312 2.703125 -2.28125 2.703125 -2.875 L 2.703125 -9.8125 C 2.703125 -10.238281 2.609375 -10.609375 2.421875 -10.921875 C 2.234375 -11.242188 1.9375 -11.40625 1.53125 -11.40625 C 1.34375 -11.40625 1.171875 -11.367188 1.015625 -11.296875 C 0.859375 -11.234375 0.753906 -11.191406 0.703125 -11.171875 L 0.5 -11.703125 L 4.515625 -13.234375 L 4.984375 -13.234375 Z M 4.984375 -10.515625 "/></g></g></g><g fill="currentColor"><g transform="translate(272.278538, 81.139763)"><g><path d="M 6.21875 -12.4375 C 5.675781 -12.4375 5.285156 -12.363281 5.046875 -12.21875 C 4.816406 -12.082031 4.703125 -11.8125 4.703125 -11.40625 C 4.703125 -11.050781 4.765625 -10.742188 4.890625 -10.484375 C 5.015625 -10.222656 5.082031 -10.070312 5.09375 -10.03125 L 8.140625 -3.234375 L 10.90625 -10.671875 C 11.050781 -11.117188 11.125 -11.425781 11.125 -11.59375 C 11.125 -11.894531 11.019531 -12.097656 10.8125 -12.203125 C 10.613281 -12.316406 10.28125 -12.394531 9.8125 -12.4375 L 9.8125 -12.9375 L 13.515625 -12.9375 L 13.515625 -12.4375 C 13.179688 -12.394531 12.894531 -12.238281 12.65625 -11.96875 C 12.414062 -11.695312 12.203125 -11.3125 12.015625 -10.8125 L 7.671875 0.890625 C 7.148438 2.242188 6.535156 3.414062 5.828125 4.40625 C 5.117188 5.40625 4.132812 5.90625 2.875 5.90625 C 2.3125 5.90625 1.859375 5.757812 1.515625 5.46875 C 1.171875 5.1875 1 4.820312 1 4.375 C 1 4 1.132812 3.691406 1.40625 3.453125 C 1.675781 3.210938 2.023438 3.09375 2.453125 3.09375 C 2.710938 3.09375 2.953125 3.140625 3.171875 3.234375 C 3.398438 3.328125 3.53125 3.382812 3.5625 3.40625 C 3.9375 3.550781 4.207031 3.625 4.375 3.625 C 4.875 3.625 5.320312 3.296875 5.71875 2.640625 C 6.125 1.992188 6.578125 1.019531 7.078125 -0.28125 L 3.0625 -9.234375 C 2.675781 -10.085938 2.378906 -10.703125 2.171875 -11.078125 C 1.972656 -11.460938 1.738281 -11.773438 1.46875 -12.015625 C 1.195312 -12.253906 0.859375 -12.394531 0.453125 -12.4375 L 0.453125 -12.9375 L 6.21875 -12.9375 Z M 6.21875 -12.4375 "/></g></g></g><g fill="currentColor"><g transform="translate(286.216871, 81.139763)"><g><path d="M 6.65625 -13.234375 C 9.445312 -13.234375 10.84375 -12.117188 10.84375 -9.890625 L 10.84375 -2.515625 C 10.84375 -2.003906 10.914062 -1.671875 11.0625 -1.515625 C 11.21875 -1.359375 11.414062 -1.28125 11.65625 -1.28125 C 11.925781 -1.28125 12.179688 -1.359375 12.421875 -1.515625 C 12.671875 -1.671875 13.023438 -1.972656 13.484375 -2.421875 L 13.484375 -1.734375 C 12.785156 -0.929688 12.207031 -0.375 11.75 -0.0625 C 11.289062 0.238281 10.820312 0.390625 10.34375 0.390625 C 9.800781 0.390625 9.367188 0.203125 9.046875 -0.171875 C 8.722656 -0.554688 8.5625 -1.125 8.5625 -1.875 C 7.738281 -1.09375 6.976562 -0.519531 6.28125 -0.15625 C 5.582031 0.207031 4.828125 0.390625 4.015625 0.390625 C 3.191406 0.390625 2.5 0.0820312 1.9375 -0.53125 C 1.382812 -1.144531 1.109375 -1.890625 1.109375 -2.765625 C 1.109375 -4.242188 1.898438 -5.394531 3.484375 -6.21875 C 4.992188 -7.019531 6.6875 -7.753906 8.5625 -8.421875 L 8.5625 -9.203125 C 8.5625 -9.941406 8.507812 -10.535156 8.40625 -10.984375 C 8.300781 -11.429688 8.066406 -11.785156 7.703125 -12.046875 C 7.335938 -12.316406 6.785156 -12.453125 6.046875 -12.453125 C 5.328125 -12.453125 4.789062 -12.273438 4.4375 -11.921875 C 4.082031 -11.578125 3.90625 -11.144531 3.90625 -10.625 L 3.9375 -9.890625 C 3.9375 -9.578125 3.832031 -9.316406 3.625 -9.109375 C 3.414062 -8.910156 3.15625 -8.8125 2.84375 -8.8125 C 2.488281 -8.8125 2.195312 -8.910156 1.96875 -9.109375 C 1.75 -9.316406 1.640625 -9.609375 1.640625 -9.984375 C 1.640625 -10.910156 2.078125 -11.679688 2.953125 -12.296875 C 3.828125 -12.921875 5.0625 -13.234375 6.65625 -13.234375 Z M 3.484375 -3.484375 C 3.484375 -2.847656 3.679688 -2.304688 4.078125 -1.859375 C 4.484375 -1.421875 4.984375 -1.203125 5.578125 -1.203125 C 6.523438 -1.203125 7.519531 -1.664062 8.5625 -2.59375 L 8.5625 -7.671875 C 7.257812 -7.128906 6.253906 -6.65625 5.546875 -6.25 C 4.835938 -5.851562 4.316406 -5.441406 3.984375 -5.015625 C 3.648438 -4.585938 3.484375 -4.078125 3.484375 -3.484375 Z M 3.484375 -3.484375 "/></g></g></g><g clip-path="url(#89036861de)"><g clip-path="url(#8c30e72802)"><g transform="matrix(1, 0, 0, 1, -0.000000000000007105, 0.000000000000010413)"><g clip-path="url(#c61824cee1)"><g clip-path="url(#eb9d013263)"><g clip-path="url(#e8b7f1d2b6)"><path fill="currentColor" d="M 0.976562 0 L 105.976562 0 L 105.976562 105 L 0.976562 105 Z M 0.976562 0 " fill-opacity="1" fill-rule="nonzero"/></g></g></g></g></g></g><g fill="#ffffff" fill-opacity="1"><g transform="translate(18.597982, 69.826337)"><g><path d="M 22.21875 -35.609375 C 24.050781 -35.609375 25.648438 -35.4375 27.015625 -35.09375 C 28.390625 -34.757812 29.769531 -34.320312 31.15625 -33.78125 C 32.132812 -33.414062 32.722656 -33.234375 32.921875 -33.234375 C 33.328125 -33.234375 33.679688 -33.4375 33.984375 -33.84375 C 34.296875 -34.25 34.484375 -34.835938 34.546875 -35.609375 L 35.515625 -35.609375 L 36.421875 -24.5 L 35.515625 -24.5 C 35.035156 -26.425781 34.117188 -28.082031 32.765625 -29.46875 C 31.421875 -30.863281 29.847656 -31.914062 28.046875 -32.625 C 26.253906 -33.332031 24.429688 -33.6875 22.578125 -33.6875 C 20.035156 -33.6875 17.695312 -33.050781 15.5625 -31.78125 C 13.4375 -30.507812 11.726562 -28.648438 10.4375 -26.203125 C 9.15625 -23.753906 8.515625 -20.820312 8.515625 -17.40625 C 8.515625 -14.257812 9.179688 -11.453125 10.515625 -8.984375 C 11.859375 -6.515625 13.671875 -4.59375 15.953125 -3.21875 C 18.234375 -1.851562 20.710938 -1.171875 23.390625 -1.171875 C 24.804688 -1.171875 26.125 -1.363281 27.34375 -1.75 C 28.5625 -2.132812 29.847656 -2.785156 31.203125 -3.703125 L 31.203125 -13.75 C 31.203125 -15.238281 30.8125 -16.273438 30.03125 -16.859375 C 29.257812 -17.453125 28.023438 -17.769531 26.328125 -17.8125 L 26.328125 -18.71875 L 41.296875 -18.71875 L 41.296875 -17.8125 C 40.046875 -17.707031 39.109375 -17.519531 38.484375 -17.25 C 37.859375 -16.976562 37.398438 -16.503906 37.109375 -15.828125 C 36.828125 -15.148438 36.6875 -14.132812 36.6875 -12.78125 L 36.6875 -2.890625 C 34.21875 -1.535156 32.015625 -0.585938 30.078125 -0.046875 C 28.148438 0.492188 25.785156 0.765625 22.984375 0.765625 C 18.585938 0.765625 14.816406 -0.078125 11.671875 -1.765625 C 8.523438 -3.460938 6.15625 -5.617188 4.5625 -8.234375 C 2.976562 -10.859375 2.1875 -13.5625 2.1875 -16.34375 C 2.1875 -19.851562 3.070312 -23.078125 4.84375 -26.015625 C 6.625 -28.960938 9.039062 -31.296875 12.09375 -33.015625 C 15.15625 -34.742188 18.53125 -35.609375 22.21875 -35.609375 Z M 22.21875 -35.609375 "/></g></g></g><g fill="#ffffff" fill-opacity="1"><g transform="translate(60.353584, 69.826337)"><g><path d="M 12.78125 -35.609375 C 13.9375 -35.609375 14.9375 -35.5 15.78125 -35.28125 C 16.625 -35.0625 17.484375 -34.765625 18.359375 -34.390625 C 18.804688 -34.222656 19.238281 -34.070312 19.65625 -33.9375 C 20.082031 -33.800781 20.460938 -33.734375 20.796875 -33.734375 C 21.609375 -33.734375 22.253906 -34.359375 22.734375 -35.609375 L 23.6875 -35.609375 L 23.6875 -24.046875 L 22.734375 -24.046875 C 22.554688 -25.835938 22.019531 -27.46875 21.125 -28.9375 C 20.226562 -30.414062 19.113281 -31.578125 17.78125 -32.421875 C 16.445312 -33.265625 15.019531 -33.6875 13.5 -33.6875 C 11.84375 -33.6875 10.421875 -33.1875 9.234375 -32.1875 C 8.046875 -31.1875 7.453125 -29.976562 7.453125 -28.5625 C 7.453125 -26.90625 8.265625 -25.46875 9.890625 -24.25 C 11.046875 -23.40625 12.65625 -22.390625 14.71875 -21.203125 C 16.539062 -20.085938 18.0625 -19.125 19.28125 -18.3125 C 20.5 -17.5 21.628906 -16.617188 22.671875 -15.671875 C 23.617188 -14.765625 24.367188 -13.71875 24.921875 -12.53125 C 25.484375 -11.34375 25.765625 -10.125 25.765625 -8.875 C 25.765625 -7.15625 25.289062 -5.550781 24.34375 -4.0625 C 23.40625 -2.570312 22.113281 -1.394531 20.46875 -0.53125 C 18.832031 0.332031 17.03125 0.765625 15.0625 0.765625 C 13.8125 0.765625 12.703125 0.648438 11.734375 0.421875 C 10.773438 0.203125 9.769531 -0.0859375 8.71875 -0.453125 C 7.570312 -0.859375 6.710938 -1.0625 6.140625 -1.0625 C 5.222656 -1.0625 4.53125 -0.453125 4.0625 0.765625 L 3.140625 0.765625 L 3.140625 -10.953125 L 4.0625 -10.953125 C 4.632812 -7.941406 5.773438 -5.554688 7.484375 -3.796875 C 9.191406 -2.046875 11.398438 -1.171875 14.109375 -1.171875 C 16.035156 -1.171875 17.625 -1.691406 18.875 -2.734375 C 20.125 -3.785156 20.75 -5.109375 20.75 -6.703125 C 20.75 -7.515625 20.597656 -8.253906 20.296875 -8.921875 C 19.992188 -9.597656 19.484375 -10.328125 18.765625 -11.109375 C 18.128906 -11.785156 17.21875 -12.519531 16.03125 -13.3125 C 14.84375 -14.113281 13.269531 -15.101562 11.3125 -16.28125 C 9.65625 -17.300781 8.382812 -18.101562 7.5 -18.6875 C 6.625 -19.28125 5.96875 -19.800781 5.53125 -20.25 C 3.800781 -22 2.9375 -24.109375 2.9375 -26.578125 C 2.9375 -28.273438 3.367188 -29.804688 4.234375 -31.171875 C 5.097656 -32.546875 6.273438 -33.628906 7.765625 -34.421875 C 9.253906 -35.210938 10.925781 -35.609375 12.78125 -35.609375 Z M 12.78125 -35.609375 "/></g></g></g><g fill="currentColor"><g transform="translate(115.434409, 81.654562)"><g><path d="M 8.625 -19.03125 C 7.84375 -19.03125 7.289062 -18.941406 6.96875 -18.765625 C 6.644531 -18.585938 6.484375 -18.25 6.484375 -17.75 C 6.484375 -17.332031 6.675781 -16.660156 7.0625 -15.734375 L 11.5 -4.78125 L 15.90625 -16.453125 C 15.925781 -16.484375 15.984375 -16.625 16.078125 -16.875 C 16.171875 -17.125 16.21875 -17.398438 16.21875 -17.703125 C 16.21875 -18.171875 16.015625 -18.503906 15.609375 -18.703125 C 15.210938 -18.898438 14.742188 -19.007812 14.203125 -19.03125 L 14.203125 -19.546875 L 20.140625 -19.546875 L 20.140625 -19.03125 C 19.441406 -19 18.828125 -18.660156 18.296875 -18.015625 C 17.765625 -17.367188 17.1875 -16.21875 16.5625 -14.5625 L 10.875 0.421875 L 10.328125 0.421875 L 3.734375 -15.9375 C 3.410156 -16.75 3.109375 -17.363281 2.828125 -17.78125 C 2.554688 -18.195312 2.226562 -18.5 1.84375 -18.6875 C 1.46875 -18.882812 0.96875 -19 0.34375 -19.03125 L 0.34375 -19.546875 L 8.625 -19.546875 Z M 8.625 -19.03125 "/></g></g></g><g fill="currentColor"><g transform="translate(135.887652, 81.654562)"><g><path d="M 3.875 -20.484375 C 4.289062 -20.484375 4.640625 -20.335938 4.921875 -20.046875 C 5.203125 -19.765625 5.34375 -19.425781 5.34375 -19.03125 C 5.34375 -18.613281 5.203125 -18.265625 4.921875 -17.984375 C 4.640625 -17.703125 4.289062 -17.5625 3.875 -17.5625 C 3.46875 -17.5625 3.125 -17.703125 2.84375 -17.984375 C 2.5625 -18.265625 2.421875 -18.613281 2.421875 -19.03125 C 2.421875 -19.425781 2.5625 -19.765625 2.84375 -20.046875 C 3.125 -20.335938 3.46875 -20.484375 3.875 -20.484375 Z M 5.125 -2.953125 C 5.125 -2.023438 5.273438 -1.390625 5.578125 -1.046875 C 5.878906 -0.710938 6.375 -0.535156 7.0625 -0.515625 L 7.0625 0 L 0.65625 0 L 0.65625 -0.515625 C 1.4375 -0.515625 1.984375 -0.691406 2.296875 -1.046875 C 2.617188 -1.410156 2.78125 -2.066406 2.78125 -3.015625 L 2.78125 -9.90625 C 2.78125 -10.414062 2.664062 -10.832031 2.4375 -11.15625 C 2.21875 -11.476562 1.867188 -11.640625 1.390625 -11.640625 C 1.179688 -11.640625 0.992188 -11.59375 0.828125 -11.5 L 0.65625 -12 L 4.609375 -13.515625 L 5.125 -13.515625 Z M 5.125 -2.953125 "/></g></g></g><g fill="currentColor"><g transform="translate(143.596731, 81.654562)"><g><path d="M 5.171875 -10.5 L 5.234375 -10.5 C 5.765625 -11.40625 6.414062 -12.132812 7.1875 -12.6875 C 7.96875 -13.238281 8.796875 -13.515625 9.671875 -13.515625 C 10.617188 -13.515625 11.484375 -13.222656 12.265625 -12.640625 C 13.054688 -12.066406 13.6875 -11.273438 14.15625 -10.265625 C 14.625 -9.265625 14.859375 -8.164062 14.859375 -6.96875 C 14.859375 -5.625 14.5625 -4.382812 13.96875 -3.25 C 13.382812 -2.125 12.585938 -1.234375 11.578125 -0.578125 C 10.578125 0.0664062 9.476562 0.390625 8.28125 0.390625 C 7.0625 0.390625 6.023438 -0.015625 5.171875 -0.828125 L 5.171875 2.953125 C 5.171875 3.691406 5.25 4.242188 5.40625 4.609375 C 5.5625 4.972656 5.800781 5.210938 6.125 5.328125 C 6.457031 5.453125 6.9375 5.515625 7.5625 5.515625 L 7.5625 6.03125 L 0.484375 6.03125 L 0.484375 5.515625 C 1.109375 5.515625 1.585938 5.445312 1.921875 5.3125 C 2.253906 5.1875 2.488281 4.941406 2.625 4.578125 C 2.769531 4.222656 2.84375 3.691406 2.84375 2.984375 L 2.84375 -9.9375 C 2.84375 -10.425781 2.738281 -10.828125 2.53125 -11.140625 C 2.320312 -11.453125 2 -11.609375 1.5625 -11.609375 C 1.332031 -11.609375 1.050781 -11.550781 0.71875 -11.4375 L 0.484375 -11.953125 L 4.6875 -13.515625 L 5.171875 -13.515625 Z M 5.171875 -9.609375 L 5.171875 -3.609375 C 5.171875 -2.753906 5.460938 -2.019531 6.046875 -1.40625 C 6.640625 -0.789062 7.421875 -0.484375 8.390625 -0.484375 C 9.628906 -0.484375 10.613281 -0.976562 11.34375 -1.96875 C 12.070312 -2.96875 12.4375 -4.300781 12.4375 -5.96875 C 12.4375 -7.582031 12.070312 -8.90625 11.34375 -9.9375 C 10.613281 -10.976562 9.660156 -11.5 8.484375 -11.5 C 7.304688 -11.5 6.203125 -10.867188 5.171875 -9.609375 Z M 5.171875 -9.609375 "/></g></g></g><g fill="currentColor"><g transform="translate(159.299364, 81.654562)"><g><path d="M 3.875 -20.484375 C 4.289062 -20.484375 4.640625 -20.335938 4.921875 -20.046875 C 5.203125 -19.765625 5.34375 -19.425781 5.34375 -19.03125 C 5.34375 -18.613281 5.203125 -18.265625 4.921875 -17.984375 C 4.640625 -17.703125 4.289062 -17.5625 3.875 -17.5625 C 3.46875 -17.5625 3.125 -17.703125 2.84375 -17.984375 C 2.5625 -18.265625 2.421875 -18.613281 2.421875 -19.03125 C 2.421875 -19.425781 2.5625 -19.765625 2.84375 -20.046875 C 3.125 -20.335938 3.46875 -20.484375 3.875 -20.484375 Z M 5.125 -2.953125 C 5.125 -2.023438 5.273438 -1.390625 5.578125 -1.046875 C 5.878906 -0.710938 6.375 -0.535156 7.0625 -0.515625 L 7.0625 0 L 0.65625 0 L 0.65625 -0.515625 C 1.4375 -0.515625 1.984375 -0.691406 2.296875 -1.046875 C 2.617188 -1.410156 2.78125 -2.066406 2.78125 -3.015625 L 2.78125 -9.90625 C 2.78125 -10.414062 2.664062 -10.832031 2.4375 -11.15625 C 2.21875 -11.476562 1.867188 -11.640625 1.390625 -11.640625 C 1.179688 -11.640625 0.992188 -11.59375 0.828125 -11.5 L 0.65625 -12 L 4.609375 -13.515625 L 5.125 -13.515625 Z M 5.125 -2.953125 "/></g></g></g><g fill="currentColor"><g transform="translate(167.008443, 81.654562)"><g><path d="M 5.09375 -10.734375 C 6.082031 -11.785156 6.890625 -12.507812 7.515625 -12.90625 C 8.140625 -13.3125 8.832031 -13.515625 9.59375 -13.515625 C 10.425781 -13.515625 11.097656 -13.289062 11.609375 -12.84375 C 12.117188 -12.394531 12.488281 -11.847656 12.71875 -11.203125 C 12.945312 -10.566406 13.0625 -9.929688 13.0625 -9.296875 L 13.0625 -3.015625 C 13.0625 -2.046875 13.210938 -1.394531 13.515625 -1.0625 C 13.816406 -0.726562 14.335938 -0.546875 15.078125 -0.515625 L 15.078125 0 L 8.421875 0 L 8.421875 -0.515625 C 9.023438 -0.515625 9.488281 -0.578125 9.8125 -0.703125 C 10.132812 -0.835938 10.367188 -1.082031 10.515625 -1.4375 C 10.660156 -1.789062 10.734375 -2.316406 10.734375 -3.015625 L 10.734375 -9.421875 C 10.734375 -10.023438 10.53125 -10.578125 10.125 -11.078125 C 9.726562 -11.585938 9.179688 -11.84375 8.484375 -11.84375 C 7.890625 -11.84375 7.328125 -11.679688 6.796875 -11.359375 C 6.265625 -11.046875 5.695312 -10.570312 5.09375 -9.9375 L 5.09375 -3.015625 C 5.09375 -2.023438 5.253906 -1.363281 5.578125 -1.03125 C 5.898438 -0.707031 6.457031 -0.535156 7.25 -0.515625 L 7.25 0 L 0.71875 0 L 0.71875 -0.515625 C 1.300781 -0.566406 1.734375 -0.664062 2.015625 -0.8125 C 2.304688 -0.96875 2.503906 -1.207031 2.609375 -1.53125 C 2.710938 -1.851562 2.765625 -2.320312 2.765625 -2.9375 L 2.765625 -10.015625 C 2.765625 -10.453125 2.664062 -10.832031 2.46875 -11.15625 C 2.28125 -11.476562 1.976562 -11.640625 1.5625 -11.640625 C 1.375 -11.640625 1.195312 -11.601562 1.03125 -11.53125 C 0.875 -11.46875 0.769531 -11.425781 0.71875 -11.40625 L 0.515625 -11.953125 L 4.609375 -13.515625 L 5.09375 -13.515625 Z M 5.09375 -10.734375 "/></g></g></g><g fill="currentColor"><g transform="translate(182.711077, 81.654562)"><g><path d="M 7.234375 -13.515625 C 8.296875 -13.515625 9.269531 -13.238281 10.15625 -12.6875 L 13.265625 -12.6875 C 13.523438 -12.6875 13.675781 -12.648438 13.71875 -12.578125 C 13.769531 -12.503906 13.796875 -12.304688 13.796875 -11.984375 C 13.796875 -11.691406 13.773438 -11.515625 13.734375 -11.453125 C 13.703125 -11.390625 13.59375 -11.359375 13.40625 -11.359375 L 11.234375 -11.359375 C 11.503906 -10.941406 11.695312 -10.550781 11.8125 -10.1875 C 11.925781 -9.820312 11.984375 -9.40625 11.984375 -8.9375 C 11.984375 -8.0625 11.773438 -7.273438 11.359375 -6.578125 C 10.941406 -5.890625 10.359375 -5.347656 9.609375 -4.953125 C 8.859375 -4.566406 8.007812 -4.375 7.0625 -4.375 C 6.445312 -4.375 5.816406 -4.472656 5.171875 -4.671875 C 4.421875 -3.984375 4.046875 -3.410156 4.046875 -2.953125 C 4.046875 -2.710938 4.179688 -2.515625 4.453125 -2.359375 C 4.722656 -2.210938 5.296875 -2.140625 6.171875 -2.140625 L 9.421875 -2.140625 C 10.554688 -2.140625 11.550781 -1.890625 12.40625 -1.390625 C 13.257812 -0.898438 13.6875 -0.171875 13.6875 0.796875 C 13.6875 1.703125 13.34375 2.554688 12.65625 3.359375 C 11.976562 4.171875 11.070312 4.816406 9.9375 5.296875 C 8.8125 5.785156 7.601562 6.03125 6.3125 6.03125 C 5.4375 6.03125 4.578125 5.898438 3.734375 5.640625 C 2.890625 5.390625 2.207031 5.054688 1.6875 4.640625 C 1.164062 4.222656 0.90625 3.796875 0.90625 3.359375 C 0.90625 2.992188 1.078125 2.5625 1.421875 2.0625 C 1.765625 1.5625 2.492188 0.75 3.609375 -0.375 C 2.660156 -0.65625 2.1875 -1.117188 2.1875 -1.765625 C 2.1875 -2.273438 2.382812 -2.789062 2.78125 -3.3125 C 3.1875 -3.832031 3.75 -4.378906 4.46875 -4.953125 C 3.707031 -5.347656 3.117188 -5.890625 2.703125 -6.578125 C 2.285156 -7.273438 2.078125 -8.03125 2.078125 -8.84375 C 2.078125 -9.71875 2.300781 -10.507812 2.75 -11.21875 C 3.195312 -11.9375 3.8125 -12.5 4.59375 -12.90625 C 5.382812 -13.3125 6.265625 -13.515625 7.234375 -13.515625 Z M 4.5 -10.046875 C 4.5 -9.335938 4.59375 -8.601562 4.78125 -7.84375 C 4.96875 -7.09375 5.289062 -6.445312 5.75 -5.90625 C 6.207031 -5.363281 6.785156 -5.09375 7.484375 -5.09375 C 8.109375 -5.09375 8.609375 -5.390625 8.984375 -5.984375 C 9.367188 -6.585938 9.5625 -7.351562 9.5625 -8.28125 C 9.5625 -8.851562 9.457031 -9.484375 9.25 -10.171875 C 9.039062 -10.859375 8.71875 -11.453125 8.28125 -11.953125 C 7.84375 -12.460938 7.28125 -12.71875 6.59375 -12.71875 C 6.03125 -12.71875 5.539062 -12.472656 5.125 -11.984375 C 4.707031 -11.503906 4.5 -10.859375 4.5 -10.046875 Z M 8.828125 0.03125 L 7.765625 0.03125 C 6.910156 0.03125 6.210938 0.015625 5.671875 -0.015625 C 5.128906 -0.046875 4.660156 -0.117188 4.265625 -0.234375 C 3.828125 0.265625 3.503906 0.707031 3.296875 1.09375 C 3.085938 1.476562 2.984375 1.851562 2.984375 2.21875 C 2.984375 2.90625 3.453125 3.425781 4.390625 3.78125 C 5.328125 4.144531 6.460938 4.328125 7.796875 4.328125 C 8.742188 4.328125 9.597656 4.203125 10.359375 3.953125 C 11.117188 3.703125 11.710938 3.359375 12.140625 2.921875 C 12.578125 2.492188 12.796875 2.015625 12.796875 1.484375 C 12.796875 0.867188 12.476562 0.476562 11.84375 0.3125 C 11.207031 0.144531 10.203125 0.0507812 8.828125 0.03125 Z M 8.828125 0.03125 "/></g></g></g><g fill="currentColor"><g transform="translate(196.934471, 81.654562)"><g><path d="M 8.109375 -13.515625 C 9.222656 -13.515625 10.269531 -13.210938 11.25 -12.609375 C 12.226562 -12.015625 13.003906 -11.21875 13.578125 -10.21875 C 14.160156 -9.226562 14.453125 -8.164062 14.453125 -7.03125 C 14.453125 -5.695312 14.140625 -4.460938 13.515625 -3.328125 C 12.890625 -2.191406 12.050781 -1.285156 11 -0.609375 C 9.945312 0.0546875 8.820312 0.390625 7.625 0.390625 C 6.488281 0.390625 5.429688 0.09375 4.453125 -0.5 C 3.472656 -1.09375 2.695312 -1.894531 2.125 -2.90625 C 1.5625 -3.925781 1.28125 -5.035156 1.28125 -6.234375 C 1.28125 -7.523438 1.59375 -8.726562 2.21875 -9.84375 C 2.84375 -10.96875 3.679688 -11.859375 4.734375 -12.515625 C 5.785156 -13.179688 6.910156 -13.515625 8.109375 -13.515625 Z M 3.84375 -7.375 C 3.84375 -6.25 4.015625 -5.171875 4.359375 -4.140625 C 4.710938 -3.109375 5.222656 -2.257812 5.890625 -1.59375 C 6.554688 -0.925781 7.351562 -0.59375 8.28125 -0.59375 C 9.363281 -0.59375 10.234375 -1.070312 10.890625 -2.03125 C 11.554688 -2.988281 11.890625 -4.253906 11.890625 -5.828125 C 11.890625 -7.078125 11.695312 -8.207031 11.3125 -9.21875 C 10.9375 -10.238281 10.40625 -11.039062 9.71875 -11.625 C 9.039062 -12.21875 8.265625 -12.515625 7.390625 -12.515625 C 6.316406 -12.515625 5.457031 -12.050781 4.8125 -11.125 C 4.164062 -10.195312 3.84375 -8.945312 3.84375 -7.375 Z M 3.84375 -7.375 "/></g></g></g><g fill="currentColor"><g transform="translate(212.637105, 81.654562)"><g><path d="M 3.578125 -2.8125 C 4.242188 -2.8125 4.796875 -2.539062 5.234375 -2 C 5.671875 -1.457031 5.890625 -0.769531 5.890625 0.0625 C 5.890625 1.15625 5.546875 2.085938 4.859375 2.859375 C 4.179688 3.628906 3.148438 4.257812 1.765625 4.75 L 1.765625 4.21875 C 2.847656 3.851562 3.632812 3.320312 4.125 2.625 C 4.613281 1.9375 4.859375 1.25 4.859375 0.5625 C 4.859375 0.375 4.816406 0.226562 4.734375 0.125 C 4.648438 0.0195312 4.550781 -0.03125 4.4375 -0.03125 C 4.363281 -0.03125 4.210938 0.0351562 3.984375 0.171875 C 3.753906 0.316406 3.515625 0.390625 3.265625 0.390625 C 2.847656 0.390625 2.492188 0.242188 2.203125 -0.046875 C 1.910156 -0.335938 1.765625 -0.691406 1.765625 -1.109375 C 1.765625 -1.585938 1.9375 -1.988281 2.28125 -2.3125 C 2.632812 -2.644531 3.066406 -2.8125 3.578125 -2.8125 Z M 3.578125 -2.8125 "/></g></g></g><g fill="currentColor"><g transform="translate(220.34989, 81.654562)"><g/></g></g></g></g></svg>